<mxfile host="app.diagrams.net" modified="2023-09-30T03:20:12.263Z" agent="Mozilla/5.0 (Macintosh; Intel Mac OS X 10.15; rv:109.0) Gecko/20100101 Firefox/115.0" etag="7V6e0cx53DrbzlCw-VnE" version="22.0.0" type="device">
  <diagram name="Page-1" id="iQPOzWm-GH2rnMNFBipy">
    <mxGraphModel dx="775" dy="416" grid="1" gridSize="5" guides="1" tooltips="1" connect="1" arrows="1" fold="1" page="1" pageScale="1" pageWidth="5900" pageHeight="1300" math="0" shadow="0">
      <root>
        <mxCell id="0" />
        <mxCell id="1" parent="0" />
        <mxCell id="wpcL7Qo-BOGiDXtRRDBN-13" style="rounded=0;orthogonalLoop=1;jettySize=auto;html=1;entryX=0;entryY=0.5;entryDx=0;entryDy=0;strokeWidth=2;exitX=1;exitY=0.25;exitDx=0;exitDy=0;edgeStyle=orthogonalEdgeStyle;" edge="1" parent="1" source="wpcL7Qo-BOGiDXtRRDBN-1" target="wpcL7Qo-BOGiDXtRRDBN-8">
          <mxGeometry relative="1" as="geometry">
            <mxPoint x="170.01" y="754.89" as="sourcePoint" />
          </mxGeometry>
        </mxCell>
        <mxCell id="wpcL7Qo-BOGiDXtRRDBN-3" value="&lt;b&gt;Input image 2&lt;/b&gt;" style="text;html=1;strokeColor=none;fillColor=none;align=right;verticalAlign=middle;whiteSpace=wrap;rounded=0;" vertex="1" parent="1">
          <mxGeometry x="110.00999999999999" y="864.89" width="60" height="30" as="geometry" />
        </mxCell>
        <mxCell id="wpcL7Qo-BOGiDXtRRDBN-14" style="rounded=0;orthogonalLoop=1;jettySize=auto;html=1;exitX=1;exitY=0.75;exitDx=0;exitDy=0;strokeWidth=2;entryX=0;entryY=0.5;entryDx=0;entryDy=0;edgeStyle=orthogonalEdgeStyle;" edge="1" parent="1" source="wpcL7Qo-BOGiDXtRRDBN-5" target="wpcL7Qo-BOGiDXtRRDBN-8">
          <mxGeometry relative="1" as="geometry">
            <mxPoint x="170.01" y="544.89" as="sourcePoint" />
            <mxPoint x="65.00999999999999" y="639.89" as="targetPoint" />
          </mxGeometry>
        </mxCell>
        <mxCell id="wpcL7Qo-BOGiDXtRRDBN-6" value="Input image 1" style="text;html=1;strokeColor=none;fillColor=none;align=right;verticalAlign=middle;whiteSpace=wrap;rounded=0;fontStyle=1" vertex="1" parent="1">
          <mxGeometry x="110.00999999999999" y="414.89" width="60" height="30" as="geometry" />
        </mxCell>
        <mxCell id="wpcL7Qo-BOGiDXtRRDBN-15" style="rounded=0;orthogonalLoop=1;jettySize=auto;html=1;exitX=1;exitY=0.5;exitDx=0;exitDy=0;strokeWidth=2;" edge="1" parent="1">
          <mxGeometry relative="1" as="geometry">
            <mxPoint x="45.00999999999999" y="49.889999999999986" as="sourcePoint" />
            <mxPoint x="85.00999999999999" y="49.889999999999986" as="targetPoint" />
          </mxGeometry>
        </mxCell>
        <mxCell id="wpcL7Qo-BOGiDXtRRDBN-16" value="Concatenation (dim=1)" style="text;html=1;strokeColor=none;fillColor=none;align=center;verticalAlign=middle;whiteSpace=wrap;rounded=0;" vertex="1" parent="1">
          <mxGeometry x="90.00999999999999" y="34.889999999999986" width="145" height="30" as="geometry" />
        </mxCell>
        <mxCell id="wpcL7Qo-BOGiDXtRRDBN-612" style="edgeStyle=orthogonalEdgeStyle;rounded=0;orthogonalLoop=1;jettySize=auto;html=1;strokeWidth=2;dashed=1;entryX=0;entryY=0.5;entryDx=0;entryDy=0;" edge="1" parent="1" source="wpcL7Qo-BOGiDXtRRDBN-17" target="wpcL7Qo-BOGiDXtRRDBN-609">
          <mxGeometry relative="1" as="geometry">
            <mxPoint x="5595.01" y="515" as="targetPoint" />
          </mxGeometry>
        </mxCell>
        <mxCell id="wpcL7Qo-BOGiDXtRRDBN-17" value="&lt;div align=&quot;justify&quot;&gt;+&lt;/div&gt;" style="ellipse;whiteSpace=wrap;html=1;aspect=fixed;align=center;fontStyle=1" vertex="1" parent="1">
          <mxGeometry x="5550.01" y="530" width="20" height="20" as="geometry" />
        </mxCell>
        <mxCell id="wpcL7Qo-BOGiDXtRRDBN-20" style="edgeStyle=orthogonalEdgeStyle;rounded=0;orthogonalLoop=1;jettySize=auto;html=1;fillColor=#ffe6cc;strokeColor=#D79B00;strokeWidth=2;" edge="1" parent="1">
          <mxGeometry relative="1" as="geometry">
            <mxPoint x="45.00999999999999" y="149.8900000000001" as="sourcePoint" />
            <mxPoint x="85.00999999999999" y="149.8900000000001" as="targetPoint" />
            <Array as="points">
              <mxPoint x="75.00999999999999" y="149.8900000000001" />
              <mxPoint x="75.00999999999999" y="149.8900000000001" />
            </Array>
          </mxGeometry>
        </mxCell>
        <mxCell id="wpcL7Qo-BOGiDXtRRDBN-21" value="&lt;font&gt;3x3 conv, Tanh&lt;/font&gt;" style="text;html=1;strokeColor=none;fillColor=none;align=center;verticalAlign=middle;whiteSpace=wrap;rounded=0;fontColor=#D79B00;" vertex="1" parent="1">
          <mxGeometry x="90.00999999999999" y="134.8900000000001" width="105" height="30" as="geometry" />
        </mxCell>
        <mxCell id="wpcL7Qo-BOGiDXtRRDBN-24" style="edgeStyle=orthogonalEdgeStyle;rounded=0;orthogonalLoop=1;jettySize=auto;html=1;entryX=0;entryY=0.5;entryDx=0;entryDy=0;strokeWidth=2;fillColor=#e6d0de;strokeColor=#996185;gradientColor=#d5739d;exitX=1;exitY=0.25;exitDx=0;exitDy=0;" edge="1" parent="1" source="wpcL7Qo-BOGiDXtRRDBN-5" target="wpcL7Qo-BOGiDXtRRDBN-23">
          <mxGeometry relative="1" as="geometry" />
        </mxCell>
        <mxCell id="wpcL7Qo-BOGiDXtRRDBN-26" style="edgeStyle=orthogonalEdgeStyle;rounded=0;orthogonalLoop=1;jettySize=auto;html=1;strokeWidth=2;fillColor=#e6d0de;strokeColor=#996185;gradientColor=#d5739d;" edge="1" parent="1">
          <mxGeometry relative="1" as="geometry">
            <mxPoint x="45.00999999999999" y="129.8900000000001" as="sourcePoint" />
            <mxPoint x="85.00999999999999" y="129.8900000000001" as="targetPoint" />
            <Array as="points">
              <mxPoint x="60.00999999999999" y="129.8900000000001" />
              <mxPoint x="60.00999999999999" y="129.8900000000001" />
            </Array>
          </mxGeometry>
        </mxCell>
        <mxCell id="wpcL7Qo-BOGiDXtRRDBN-29" value="3x3 conv, LeakyReLU(0.01)" style="text;html=1;strokeColor=none;fillColor=none;align=center;verticalAlign=middle;whiteSpace=wrap;rounded=0;fontColor=#996185;" vertex="1" parent="1">
          <mxGeometry x="95.00999999999999" y="114.8900000000001" width="165" height="30" as="geometry" />
        </mxCell>
        <mxCell id="wpcL7Qo-BOGiDXtRRDBN-33" value="" style="group" vertex="1" connectable="0" parent="1">
          <mxGeometry x="220.01" y="389.89" width="80" height="240.11" as="geometry" />
        </mxCell>
        <mxCell id="wpcL7Qo-BOGiDXtRRDBN-23" value="" style="rounded=0;whiteSpace=wrap;html=1;fillColor=#1ba1e2;strokeColor=#006EAF;fontColor=#ffffff;" vertex="1" parent="wpcL7Qo-BOGiDXtRRDBN-33">
          <mxGeometry x="20" y="-135" width="20" height="160" as="geometry" />
        </mxCell>
        <mxCell id="wpcL7Qo-BOGiDXtRRDBN-36" value="" style="group" vertex="1" connectable="0" parent="wpcL7Qo-BOGiDXtRRDBN-33">
          <mxGeometry x="50" y="55.110000000000014" width="30" height="185" as="geometry" />
        </mxCell>
        <mxCell id="wpcL7Qo-BOGiDXtRRDBN-8" value="" style="rounded=0;whiteSpace=wrap;html=1;fillColor=#1ba1e2;strokeColor=#006EAF;fontColor=#ffffff;" vertex="1" parent="wpcL7Qo-BOGiDXtRRDBN-36">
          <mxGeometry x="10" y="15" width="5" height="160" as="geometry" />
        </mxCell>
        <mxCell id="wpcL7Qo-BOGiDXtRRDBN-9" value="" style="rounded=0;whiteSpace=wrap;html=1;fillColor=#1ba1e2;strokeColor=#006EAF;fontColor=#ffffff;" vertex="1" parent="wpcL7Qo-BOGiDXtRRDBN-36">
          <mxGeometry x="15" y="15" width="5" height="160" as="geometry" />
        </mxCell>
        <mxCell id="wpcL7Qo-BOGiDXtRRDBN-10" value="6" style="text;html=1;align=center;verticalAlign=middle;resizable=0;points=[];autosize=1;strokeColor=none;fillColor=none;" vertex="1" parent="wpcL7Qo-BOGiDXtRRDBN-36">
          <mxGeometry width="30" height="30" as="geometry" />
        </mxCell>
        <mxCell id="wpcL7Qo-BOGiDXtRRDBN-34" value="" style="group" vertex="1" connectable="0" parent="1">
          <mxGeometry x="162.01" y="389.89" width="30" height="185" as="geometry" />
        </mxCell>
        <mxCell id="wpcL7Qo-BOGiDXtRRDBN-5" value="" style="rounded=0;whiteSpace=wrap;html=1;fillColor=#1ba1e2;strokeColor=#006EAF;fontColor=#ffffff;" vertex="1" parent="wpcL7Qo-BOGiDXtRRDBN-34">
          <mxGeometry x="13" y="25" width="5" height="160" as="geometry" />
        </mxCell>
        <mxCell id="wpcL7Qo-BOGiDXtRRDBN-7" value="3" style="text;html=1;align=center;verticalAlign=middle;resizable=0;points=[];autosize=1;strokeColor=none;fillColor=none;" vertex="1" parent="wpcL7Qo-BOGiDXtRRDBN-34">
          <mxGeometry width="30" height="30" as="geometry" />
        </mxCell>
        <mxCell id="wpcL7Qo-BOGiDXtRRDBN-35" value="" style="group" vertex="1" connectable="0" parent="1">
          <mxGeometry x="162.01" y="709.89" width="30" height="185" as="geometry" />
        </mxCell>
        <mxCell id="wpcL7Qo-BOGiDXtRRDBN-1" value="" style="rounded=0;whiteSpace=wrap;html=1;fillColor=#1ba1e2;strokeColor=#006EAF;fontColor=#ffffff;" vertex="1" parent="wpcL7Qo-BOGiDXtRRDBN-35">
          <mxGeometry x="13" y="25" width="5" height="160" as="geometry" />
        </mxCell>
        <mxCell id="wpcL7Qo-BOGiDXtRRDBN-2" value="3" style="text;html=1;align=center;verticalAlign=middle;resizable=0;points=[];autosize=1;strokeColor=none;fillColor=none;" vertex="1" parent="wpcL7Qo-BOGiDXtRRDBN-35">
          <mxGeometry width="30" height="30" as="geometry" />
        </mxCell>
        <mxCell id="wpcL7Qo-BOGiDXtRRDBN-37" value="" style="group" vertex="1" connectable="0" parent="1">
          <mxGeometry x="260.01" y="229.89" width="60" height="185" as="geometry" />
        </mxCell>
        <mxCell id="wpcL7Qo-BOGiDXtRRDBN-38" value="" style="rounded=0;whiteSpace=wrap;html=1;fillColor=#1ba1e2;strokeColor=#006EAF;fontColor=#ffffff;" vertex="1" parent="wpcL7Qo-BOGiDXtRRDBN-37">
          <mxGeometry x="20" y="25" width="20" height="160" as="geometry" />
        </mxCell>
        <mxCell id="wpcL7Qo-BOGiDXtRRDBN-39" value="32" style="text;html=1;strokeColor=none;fillColor=none;align=center;verticalAlign=middle;whiteSpace=wrap;rounded=0;" vertex="1" parent="wpcL7Qo-BOGiDXtRRDBN-37">
          <mxGeometry width="60" height="30" as="geometry" />
        </mxCell>
        <mxCell id="wpcL7Qo-BOGiDXtRRDBN-47" value="" style="group" vertex="1" connectable="0" parent="1">
          <mxGeometry x="300.01" y="229.89" width="60" height="185" as="geometry" />
        </mxCell>
        <mxCell id="wpcL7Qo-BOGiDXtRRDBN-48" value="" style="rounded=0;whiteSpace=wrap;html=1;fillColor=#1ba1e2;strokeColor=#006EAF;fontColor=#ffffff;" vertex="1" parent="wpcL7Qo-BOGiDXtRRDBN-47">
          <mxGeometry x="20" y="25" width="20" height="160" as="geometry" />
        </mxCell>
        <mxCell id="wpcL7Qo-BOGiDXtRRDBN-49" value="32" style="text;html=1;strokeColor=none;fillColor=none;align=center;verticalAlign=middle;whiteSpace=wrap;rounded=0;" vertex="1" parent="wpcL7Qo-BOGiDXtRRDBN-47">
          <mxGeometry width="60" height="30" as="geometry" />
        </mxCell>
        <mxCell id="wpcL7Qo-BOGiDXtRRDBN-50" style="edgeStyle=orthogonalEdgeStyle;rounded=0;orthogonalLoop=1;jettySize=auto;html=1;fillColor=#e6d0de;gradientColor=#d5739d;strokeColor=#996185;strokeWidth=2;entryX=0;entryY=0.5;entryDx=0;entryDy=0;" edge="1" parent="1" source="wpcL7Qo-BOGiDXtRRDBN-38" target="wpcL7Qo-BOGiDXtRRDBN-48">
          <mxGeometry relative="1" as="geometry">
            <mxPoint x="280.01" y="334.89" as="targetPoint" />
          </mxGeometry>
        </mxCell>
        <mxCell id="wpcL7Qo-BOGiDXtRRDBN-46" style="edgeStyle=orthogonalEdgeStyle;rounded=0;orthogonalLoop=1;jettySize=auto;html=1;strokeWidth=2;fillColor=#e6d0de;gradientColor=#d5739d;strokeColor=#996185;entryX=0;entryY=0.5;entryDx=0;entryDy=0;" edge="1" parent="1" source="wpcL7Qo-BOGiDXtRRDBN-23" target="wpcL7Qo-BOGiDXtRRDBN-38">
          <mxGeometry relative="1" as="geometry">
            <mxPoint x="252.01" y="334.89" as="targetPoint" />
          </mxGeometry>
        </mxCell>
        <mxCell id="wpcL7Qo-BOGiDXtRRDBN-53" value="" style="group" vertex="1" connectable="0" parent="1">
          <mxGeometry x="220.01" y="870" width="60" height="185" as="geometry" />
        </mxCell>
        <mxCell id="wpcL7Qo-BOGiDXtRRDBN-54" value="" style="rounded=0;whiteSpace=wrap;html=1;fillColor=#1ba1e2;strokeColor=#006EAF;fontColor=#ffffff;" vertex="1" parent="wpcL7Qo-BOGiDXtRRDBN-53">
          <mxGeometry x="20" y="25" width="20" height="160" as="geometry" />
        </mxCell>
        <mxCell id="wpcL7Qo-BOGiDXtRRDBN-55" value="32" style="text;html=1;strokeColor=none;fillColor=none;align=center;verticalAlign=middle;whiteSpace=wrap;rounded=0;" vertex="1" parent="wpcL7Qo-BOGiDXtRRDBN-53">
          <mxGeometry width="60" height="30" as="geometry" />
        </mxCell>
        <mxCell id="wpcL7Qo-BOGiDXtRRDBN-56" value="" style="group" vertex="1" connectable="0" parent="1">
          <mxGeometry x="260.01" y="870" width="60" height="185" as="geometry" />
        </mxCell>
        <mxCell id="wpcL7Qo-BOGiDXtRRDBN-57" value="" style="rounded=0;whiteSpace=wrap;html=1;fillColor=#1ba1e2;strokeColor=#006EAF;fontColor=#ffffff;" vertex="1" parent="wpcL7Qo-BOGiDXtRRDBN-56">
          <mxGeometry x="20" y="25" width="20" height="160" as="geometry" />
        </mxCell>
        <mxCell id="wpcL7Qo-BOGiDXtRRDBN-58" value="32" style="text;html=1;strokeColor=none;fillColor=none;align=center;verticalAlign=middle;whiteSpace=wrap;rounded=0;" vertex="1" parent="wpcL7Qo-BOGiDXtRRDBN-56">
          <mxGeometry width="60" height="30" as="geometry" />
        </mxCell>
        <mxCell id="wpcL7Qo-BOGiDXtRRDBN-59" value="" style="group" vertex="1" connectable="0" parent="1">
          <mxGeometry x="300.01" y="870" width="60" height="185" as="geometry" />
        </mxCell>
        <mxCell id="wpcL7Qo-BOGiDXtRRDBN-60" value="" style="rounded=0;whiteSpace=wrap;html=1;fillColor=#1ba1e2;strokeColor=#006EAF;fontColor=#ffffff;" vertex="1" parent="wpcL7Qo-BOGiDXtRRDBN-59">
          <mxGeometry x="20" y="25" width="20" height="160" as="geometry" />
        </mxCell>
        <mxCell id="wpcL7Qo-BOGiDXtRRDBN-61" value="32" style="text;html=1;strokeColor=none;fillColor=none;align=center;verticalAlign=middle;whiteSpace=wrap;rounded=0;" vertex="1" parent="wpcL7Qo-BOGiDXtRRDBN-59">
          <mxGeometry width="60" height="30" as="geometry" />
        </mxCell>
        <mxCell id="wpcL7Qo-BOGiDXtRRDBN-62" style="edgeStyle=orthogonalEdgeStyle;rounded=0;orthogonalLoop=1;jettySize=auto;html=1;fillColor=#e6d0de;gradientColor=#d5739d;strokeColor=#996185;strokeWidth=2;entryX=0;entryY=0.5;entryDx=0;entryDy=0;" edge="1" parent="1" source="wpcL7Qo-BOGiDXtRRDBN-57" target="wpcL7Qo-BOGiDXtRRDBN-60">
          <mxGeometry relative="1" as="geometry">
            <mxPoint x="280.01" y="975" as="targetPoint" />
          </mxGeometry>
        </mxCell>
        <mxCell id="wpcL7Qo-BOGiDXtRRDBN-63" style="edgeStyle=orthogonalEdgeStyle;rounded=0;orthogonalLoop=1;jettySize=auto;html=1;strokeWidth=2;fillColor=#e6d0de;gradientColor=#d5739d;strokeColor=#996185;entryX=0;entryY=0.5;entryDx=0;entryDy=0;" edge="1" parent="1" source="wpcL7Qo-BOGiDXtRRDBN-54" target="wpcL7Qo-BOGiDXtRRDBN-57">
          <mxGeometry relative="1" as="geometry">
            <mxPoint x="252.01" y="975" as="targetPoint" />
          </mxGeometry>
        </mxCell>
        <mxCell id="wpcL7Qo-BOGiDXtRRDBN-64" style="edgeStyle=orthogonalEdgeStyle;rounded=0;orthogonalLoop=1;jettySize=auto;html=1;exitX=1;exitY=0.75;exitDx=0;exitDy=0;fillColor=#e6d0de;gradientColor=#d5739d;strokeColor=#996185;strokeWidth=2;entryX=0;entryY=0.5;entryDx=0;entryDy=0;" edge="1" parent="1" source="wpcL7Qo-BOGiDXtRRDBN-1" target="wpcL7Qo-BOGiDXtRRDBN-54">
          <mxGeometry relative="1" as="geometry">
            <mxPoint x="240.01" y="815.3636842105265" as="targetPoint" />
          </mxGeometry>
        </mxCell>
        <mxCell id="wpcL7Qo-BOGiDXtRRDBN-66" value="" style="group" vertex="1" connectable="0" parent="1">
          <mxGeometry x="380.01" y="565" width="1660" height="355" as="geometry" />
        </mxCell>
        <mxCell id="wpcL7Qo-BOGiDXtRRDBN-131" value="" style="group" vertex="1" connectable="0" parent="wpcL7Qo-BOGiDXtRRDBN-66">
          <mxGeometry x="260" y="177.49999999999997" width="170" height="100" as="geometry" />
        </mxCell>
        <mxCell id="wpcL7Qo-BOGiDXtRRDBN-132" value="" style="group" vertex="1" connectable="0" parent="wpcL7Qo-BOGiDXtRRDBN-131">
          <mxGeometry width="170" height="100" as="geometry" />
        </mxCell>
        <mxCell id="wpcL7Qo-BOGiDXtRRDBN-133" value="" style="rounded=0;whiteSpace=wrap;html=1;fillColor=#1ba1e2;strokeColor=#006EAF;fontColor=#ffffff;" vertex="1" parent="wpcL7Qo-BOGiDXtRRDBN-132">
          <mxGeometry x="20" y="9.66" width="40" height="77.84" as="geometry" />
        </mxCell>
        <mxCell id="wpcL7Qo-BOGiDXtRRDBN-135" value="" style="group" vertex="1" connectable="0" parent="wpcL7Qo-BOGiDXtRRDBN-132">
          <mxGeometry x="40" y="-12.5" width="70" height="100" as="geometry" />
        </mxCell>
        <mxCell id="wpcL7Qo-BOGiDXtRRDBN-136" value="" style="group" vertex="1" connectable="0" parent="wpcL7Qo-BOGiDXtRRDBN-135">
          <mxGeometry width="60" height="100" as="geometry" />
        </mxCell>
        <mxCell id="wpcL7Qo-BOGiDXtRRDBN-137" value="" style="rounded=0;whiteSpace=wrap;html=1;fillColor=#1ba1e2;strokeColor=#006EAF;fontColor=#ffffff;" vertex="1" parent="wpcL7Qo-BOGiDXtRRDBN-136">
          <mxGeometry x="20" y="22.16" width="40" height="77.84" as="geometry" />
        </mxCell>
        <mxCell id="wpcL7Qo-BOGiDXtRRDBN-145" value="" style="group" vertex="1" connectable="0" parent="wpcL7Qo-BOGiDXtRRDBN-132">
          <mxGeometry x="100" y="-12.5" width="70" height="100" as="geometry" />
        </mxCell>
        <mxCell id="wpcL7Qo-BOGiDXtRRDBN-146" value="" style="group" vertex="1" connectable="0" parent="wpcL7Qo-BOGiDXtRRDBN-145">
          <mxGeometry width="70" height="100" as="geometry" />
        </mxCell>
        <mxCell id="wpcL7Qo-BOGiDXtRRDBN-147" value="" style="rounded=0;whiteSpace=wrap;html=1;fillColor=#1ba1e2;strokeColor=#006EAF;fontColor=#ffffff;" vertex="1" parent="wpcL7Qo-BOGiDXtRRDBN-146">
          <mxGeometry x="20" y="22.16" width="40" height="77.84" as="geometry" />
        </mxCell>
        <mxCell id="wpcL7Qo-BOGiDXtRRDBN-148" value="64" style="text;html=1;strokeColor=none;fillColor=none;align=center;verticalAlign=middle;whiteSpace=wrap;rounded=0;" vertex="1" parent="wpcL7Qo-BOGiDXtRRDBN-146">
          <mxGeometry x="10" y="5.13" width="60" height="17.027027027027025" as="geometry" />
        </mxCell>
        <mxCell id="wpcL7Qo-BOGiDXtRRDBN-149" style="edgeStyle=orthogonalEdgeStyle;rounded=0;orthogonalLoop=1;jettySize=auto;html=1;exitX=1;exitY=0.5;exitDx=0;exitDy=0;strokeWidth=2;strokeColor=#004C99;" edge="1" parent="wpcL7Qo-BOGiDXtRRDBN-132" source="wpcL7Qo-BOGiDXtRRDBN-137" target="wpcL7Qo-BOGiDXtRRDBN-147">
          <mxGeometry relative="1" as="geometry" />
        </mxCell>
        <mxCell id="wpcL7Qo-BOGiDXtRRDBN-134" value="128" style="text;html=1;strokeColor=none;fillColor=none;align=center;verticalAlign=middle;whiteSpace=wrap;rounded=0;" vertex="1" parent="wpcL7Qo-BOGiDXtRRDBN-132">
          <mxGeometry x="30" y="-7.37" width="60" height="17.027027027027025" as="geometry" />
        </mxCell>
        <mxCell id="wpcL7Qo-BOGiDXtRRDBN-192" value="" style="group" vertex="1" connectable="0" parent="wpcL7Qo-BOGiDXtRRDBN-66">
          <mxGeometry x="660" y="234.54999999999993" width="280" height="68.29000000000005" as="geometry" />
        </mxCell>
        <mxCell id="wpcL7Qo-BOGiDXtRRDBN-193" value="" style="group" vertex="1" connectable="0" parent="wpcL7Qo-BOGiDXtRRDBN-192">
          <mxGeometry x="20" y="20.45" width="80" height="47.84" as="geometry" />
        </mxCell>
        <mxCell id="wpcL7Qo-BOGiDXtRRDBN-194" value="" style="rounded=0;whiteSpace=wrap;html=1;fillColor=#1ba1e2;strokeColor=#006EAF;fontColor=#ffffff;" vertex="1" parent="wpcL7Qo-BOGiDXtRRDBN-193">
          <mxGeometry y="10.6" width="80" height="37.24" as="geometry" />
        </mxCell>
        <mxCell id="wpcL7Qo-BOGiDXtRRDBN-196" value="" style="group" vertex="1" connectable="0" parent="wpcL7Qo-BOGiDXtRRDBN-192">
          <mxGeometry x="80" y="20.450000000000045" width="100" height="47.84" as="geometry" />
        </mxCell>
        <mxCell id="wpcL7Qo-BOGiDXtRRDBN-197" value="" style="group" vertex="1" connectable="0" parent="wpcL7Qo-BOGiDXtRRDBN-196">
          <mxGeometry x="20" width="80" height="47.84" as="geometry" />
        </mxCell>
        <mxCell id="wpcL7Qo-BOGiDXtRRDBN-198" value="" style="rounded=0;whiteSpace=wrap;html=1;fillColor=#1ba1e2;strokeColor=#006EAF;fontColor=#ffffff;" vertex="1" parent="wpcL7Qo-BOGiDXtRRDBN-197">
          <mxGeometry y="10.6" width="80" height="37.24" as="geometry" />
        </mxCell>
        <mxCell id="wpcL7Qo-BOGiDXtRRDBN-195" value="256" style="text;html=1;strokeColor=none;fillColor=none;align=center;verticalAlign=middle;whiteSpace=wrap;rounded=0;" vertex="1" parent="wpcL7Qo-BOGiDXtRRDBN-196">
          <mxGeometry x="-10" y="-1.46" width="60" height="8.145729729729728" as="geometry" />
        </mxCell>
        <mxCell id="wpcL7Qo-BOGiDXtRRDBN-202" value="" style="group" vertex="1" connectable="0" parent="wpcL7Qo-BOGiDXtRRDBN-192">
          <mxGeometry x="180" y="20.450000000000045" width="100" height="47.84" as="geometry" />
        </mxCell>
        <mxCell id="wpcL7Qo-BOGiDXtRRDBN-203" value="" style="group" vertex="1" connectable="0" parent="wpcL7Qo-BOGiDXtRRDBN-202">
          <mxGeometry x="20" width="80" height="47.84" as="geometry" />
        </mxCell>
        <mxCell id="wpcL7Qo-BOGiDXtRRDBN-204" value="" style="rounded=0;whiteSpace=wrap;html=1;fillColor=#1ba1e2;strokeColor=#006EAF;fontColor=#ffffff;" vertex="1" parent="wpcL7Qo-BOGiDXtRRDBN-203">
          <mxGeometry y="10.6" width="80" height="37.24" as="geometry" />
        </mxCell>
        <mxCell id="wpcL7Qo-BOGiDXtRRDBN-205" value="128" style="text;html=1;strokeColor=none;fillColor=none;align=center;verticalAlign=middle;whiteSpace=wrap;rounded=0;" vertex="1" parent="wpcL7Qo-BOGiDXtRRDBN-203">
          <mxGeometry x="10" y="-2.55" width="60" height="13.15" as="geometry" />
        </mxCell>
        <mxCell id="wpcL7Qo-BOGiDXtRRDBN-206" style="edgeStyle=orthogonalEdgeStyle;rounded=0;orthogonalLoop=1;jettySize=auto;html=1;entryX=0;entryY=0.5;entryDx=0;entryDy=0;strokeWidth=2;strokeColor=#004C99;" edge="1" parent="wpcL7Qo-BOGiDXtRRDBN-192" source="wpcL7Qo-BOGiDXtRRDBN-198" target="wpcL7Qo-BOGiDXtRRDBN-204">
          <mxGeometry relative="1" as="geometry" />
        </mxCell>
        <mxCell id="wpcL7Qo-BOGiDXtRRDBN-299" value="" style="group" vertex="1" connectable="0" parent="wpcL7Qo-BOGiDXtRRDBN-66">
          <mxGeometry x="1160" y="315.21999999999997" width="160" height="34.78" as="geometry" />
        </mxCell>
        <mxCell id="wpcL7Qo-BOGiDXtRRDBN-300" value="" style="group" vertex="1" connectable="0" parent="wpcL7Qo-BOGiDXtRRDBN-299">
          <mxGeometry y="4.780000000000001" width="160" height="30" as="geometry" />
        </mxCell>
        <mxCell id="wpcL7Qo-BOGiDXtRRDBN-301" value="" style="group" vertex="1" connectable="0" parent="wpcL7Qo-BOGiDXtRRDBN-300">
          <mxGeometry width="160" height="30" as="geometry" />
        </mxCell>
        <mxCell id="wpcL7Qo-BOGiDXtRRDBN-302" value="" style="rounded=0;whiteSpace=wrap;html=1;fillColor=#1ba1e2;strokeColor=#006EAF;fontColor=#ffffff;" vertex="1" parent="wpcL7Qo-BOGiDXtRRDBN-301">
          <mxGeometry y="4.78" width="160" height="20.22" as="geometry" />
        </mxCell>
        <mxCell id="wpcL7Qo-BOGiDXtRRDBN-307" value="" style="group" vertex="1" connectable="0" parent="wpcL7Qo-BOGiDXtRRDBN-66">
          <mxGeometry x="1320" y="315.21999999999997" width="160" height="34.78" as="geometry" />
        </mxCell>
        <mxCell id="wpcL7Qo-BOGiDXtRRDBN-308" value="" style="group" vertex="1" connectable="0" parent="wpcL7Qo-BOGiDXtRRDBN-307">
          <mxGeometry y="4.780000000000001" width="160" height="30" as="geometry" />
        </mxCell>
        <mxCell id="wpcL7Qo-BOGiDXtRRDBN-309" value="" style="group" vertex="1" connectable="0" parent="wpcL7Qo-BOGiDXtRRDBN-308">
          <mxGeometry width="160" height="30" as="geometry" />
        </mxCell>
        <mxCell id="wpcL7Qo-BOGiDXtRRDBN-310" value="" style="rounded=0;whiteSpace=wrap;html=1;fillColor=#1ba1e2;strokeColor=#006EAF;fontColor=#ffffff;" vertex="1" parent="wpcL7Qo-BOGiDXtRRDBN-309">
          <mxGeometry y="4.78" width="160" height="20.22" as="geometry" />
        </mxCell>
        <mxCell id="wpcL7Qo-BOGiDXtRRDBN-303" value="512" style="text;html=1;strokeColor=none;fillColor=none;align=center;verticalAlign=middle;whiteSpace=wrap;rounded=0;" vertex="1" parent="wpcL7Qo-BOGiDXtRRDBN-307">
          <mxGeometry x="-30" width="60" height="4.77608108108108" as="geometry" />
        </mxCell>
        <mxCell id="wpcL7Qo-BOGiDXtRRDBN-312" value="" style="group" vertex="1" connectable="0" parent="wpcL7Qo-BOGiDXtRRDBN-66">
          <mxGeometry x="1500" y="315.21999999999997" width="160" height="34.78" as="geometry" />
        </mxCell>
        <mxCell id="wpcL7Qo-BOGiDXtRRDBN-313" value="" style="group" vertex="1" connectable="0" parent="wpcL7Qo-BOGiDXtRRDBN-312">
          <mxGeometry y="4.780000000000001" width="160" height="30" as="geometry" />
        </mxCell>
        <mxCell id="wpcL7Qo-BOGiDXtRRDBN-314" value="" style="group" vertex="1" connectable="0" parent="wpcL7Qo-BOGiDXtRRDBN-313">
          <mxGeometry width="160" height="30" as="geometry" />
        </mxCell>
        <mxCell id="wpcL7Qo-BOGiDXtRRDBN-315" value="" style="rounded=0;whiteSpace=wrap;html=1;fillColor=#1ba1e2;strokeColor=#006EAF;fontColor=#ffffff;" vertex="1" parent="wpcL7Qo-BOGiDXtRRDBN-314">
          <mxGeometry y="4.78" width="160" height="20.22" as="geometry" />
        </mxCell>
        <mxCell id="wpcL7Qo-BOGiDXtRRDBN-316" value="256" style="text;html=1;strokeColor=none;fillColor=none;align=center;verticalAlign=middle;whiteSpace=wrap;rounded=0;" vertex="1" parent="wpcL7Qo-BOGiDXtRRDBN-312">
          <mxGeometry x="50" width="60" height="4.77608108108108" as="geometry" />
        </mxCell>
        <mxCell id="wpcL7Qo-BOGiDXtRRDBN-318" style="edgeStyle=orthogonalEdgeStyle;rounded=0;orthogonalLoop=1;jettySize=auto;html=1;exitX=1;exitY=0.5;exitDx=0;exitDy=0;entryX=0;entryY=0.5;entryDx=0;entryDy=0;strokeWidth=2;strokeColor=#004C99;" edge="1" parent="wpcL7Qo-BOGiDXtRRDBN-66" source="wpcL7Qo-BOGiDXtRRDBN-310" target="wpcL7Qo-BOGiDXtRRDBN-315">
          <mxGeometry relative="1" as="geometry" />
        </mxCell>
        <mxCell id="wpcL7Qo-BOGiDXtRRDBN-69" value="" style="group" vertex="1" connectable="0" parent="wpcL7Qo-BOGiDXtRRDBN-66">
          <mxGeometry x="20" y="20" width="80" height="185" as="geometry" />
        </mxCell>
        <mxCell id="wpcL7Qo-BOGiDXtRRDBN-67" value="" style="rounded=0;whiteSpace=wrap;html=1;fillColor=#1ba1e2;strokeColor=#006EAF;fontColor=#ffffff;" vertex="1" parent="wpcL7Qo-BOGiDXtRRDBN-69">
          <mxGeometry y="5" width="20" height="160" as="geometry" />
        </mxCell>
        <mxCell id="wpcL7Qo-BOGiDXtRRDBN-70" value="" style="rounded=0;whiteSpace=wrap;html=1;fillColor=#1ba1e2;strokeColor=#006EAF;fontColor=#ffffff;" vertex="1" parent="wpcL7Qo-BOGiDXtRRDBN-69">
          <mxGeometry x="20" y="5" width="20" height="160" as="geometry" />
        </mxCell>
        <mxCell id="wpcL7Qo-BOGiDXtRRDBN-75" value="" style="rounded=0;whiteSpace=wrap;html=1;fillColor=#1ba1e2;strokeColor=#006EAF;fontColor=#ffffff;" vertex="1" parent="wpcL7Qo-BOGiDXtRRDBN-69">
          <mxGeometry x="60" y="5" width="20" height="160" as="geometry" />
        </mxCell>
        <mxCell id="wpcL7Qo-BOGiDXtRRDBN-77" style="edgeStyle=orthogonalEdgeStyle;rounded=0;orthogonalLoop=1;jettySize=auto;html=1;entryX=0;entryY=0.5;entryDx=0;entryDy=0;strokeWidth=2;fillColor=#f5f5f5;gradientColor=#b3b3b3;strokeColor=#004C99;" edge="1" parent="wpcL7Qo-BOGiDXtRRDBN-69" target="wpcL7Qo-BOGiDXtRRDBN-75">
          <mxGeometry relative="1" as="geometry">
            <mxPoint x="40" y="85.11000000000001" as="sourcePoint" />
            <mxPoint x="60" y="-75.00000000000011" as="targetPoint" />
          </mxGeometry>
        </mxCell>
        <mxCell id="wpcL7Qo-BOGiDXtRRDBN-74" value="" style="group" vertex="1" connectable="0" parent="wpcL7Qo-BOGiDXtRRDBN-66">
          <mxGeometry x="60" y="1.4210854715202004e-14" width="60" height="185" as="geometry" />
        </mxCell>
        <mxCell id="wpcL7Qo-BOGiDXtRRDBN-76" value="32" style="text;html=1;strokeColor=none;fillColor=none;align=center;verticalAlign=middle;whiteSpace=wrap;rounded=0;" vertex="1" parent="wpcL7Qo-BOGiDXtRRDBN-74">
          <mxGeometry y="-5" width="60" height="30" as="geometry" />
        </mxCell>
        <mxCell id="wpcL7Qo-BOGiDXtRRDBN-68" value="64" style="text;html=1;strokeColor=none;fillColor=none;align=center;verticalAlign=middle;whiteSpace=wrap;rounded=0;" vertex="1" parent="wpcL7Qo-BOGiDXtRRDBN-66">
          <mxGeometry x="10" y="-4.889999999999986" width="60" height="30" as="geometry" />
        </mxCell>
        <mxCell id="wpcL7Qo-BOGiDXtRRDBN-72" style="edgeStyle=orthogonalEdgeStyle;rounded=0;orthogonalLoop=1;jettySize=auto;html=1;entryX=0;entryY=0.5;entryDx=0;entryDy=0;strokeWidth=2;exitX=1;exitY=0.25;exitDx=0;exitDy=0;" edge="1" parent="1" target="wpcL7Qo-BOGiDXtRRDBN-67">
          <mxGeometry relative="1" as="geometry">
            <mxPoint x="340.01" y="985" as="sourcePoint" />
          </mxGeometry>
        </mxCell>
        <mxCell id="wpcL7Qo-BOGiDXtRRDBN-73" style="edgeStyle=orthogonalEdgeStyle;rounded=0;orthogonalLoop=1;jettySize=auto;html=1;exitX=1;exitY=0.75;exitDx=0;exitDy=0;entryX=0;entryY=0.5;entryDx=0;entryDy=0;strokeWidth=2;" edge="1" parent="1" source="wpcL7Qo-BOGiDXtRRDBN-48" target="wpcL7Qo-BOGiDXtRRDBN-67">
          <mxGeometry relative="1" as="geometry">
            <mxPoint x="400.01" y="394.8899999999999" as="targetPoint" />
          </mxGeometry>
        </mxCell>
        <mxCell id="wpcL7Qo-BOGiDXtRRDBN-78" style="edgeStyle=orthogonalEdgeStyle;rounded=0;orthogonalLoop=1;jettySize=auto;html=1;strokeWidth=2;fillColor=#f5f5f5;gradientColor=#b3b3b3;strokeColor=#004C99;" edge="1" parent="1">
          <mxGeometry relative="1" as="geometry">
            <mxPoint x="45.00999999999999" y="109.8900000000001" as="sourcePoint" />
            <mxPoint x="85.00999999999999" y="109.8900000000001" as="targetPoint" />
            <Array as="points">
              <mxPoint x="65.00999999999999" y="109.8900000000001" />
              <mxPoint x="65.00999999999999" y="109.8900000000001" />
            </Array>
          </mxGeometry>
        </mxCell>
        <mxCell id="wpcL7Qo-BOGiDXtRRDBN-79" value="3x3 conv" style="text;html=1;strokeColor=none;fillColor=none;align=center;verticalAlign=middle;whiteSpace=wrap;rounded=0;fontColor=#004C99;" vertex="1" parent="1">
          <mxGeometry x="100.00999999999999" y="94.78000000000009" width="55" height="30" as="geometry" />
        </mxCell>
        <mxCell id="wpcL7Qo-BOGiDXtRRDBN-80" value="" style="group" vertex="1" connectable="0" parent="1">
          <mxGeometry x="380.01" y="164.89" width="60" height="90" as="geometry" />
        </mxCell>
        <mxCell id="wpcL7Qo-BOGiDXtRRDBN-93" value="" style="group" vertex="1" connectable="0" parent="wpcL7Qo-BOGiDXtRRDBN-80">
          <mxGeometry y="-10" width="60" height="99.99999999999999" as="geometry" />
        </mxCell>
        <mxCell id="wpcL7Qo-BOGiDXtRRDBN-81" value="" style="rounded=0;whiteSpace=wrap;html=1;fillColor=#1ba1e2;strokeColor=#006EAF;fontColor=#ffffff;" vertex="1" parent="wpcL7Qo-BOGiDXtRRDBN-93">
          <mxGeometry x="20" y="22.16216216216216" width="20" height="77.83783783783782" as="geometry" />
        </mxCell>
        <mxCell id="wpcL7Qo-BOGiDXtRRDBN-82" value="32" style="text;html=1;strokeColor=none;fillColor=none;align=center;verticalAlign=middle;whiteSpace=wrap;rounded=0;" vertex="1" parent="wpcL7Qo-BOGiDXtRRDBN-93">
          <mxGeometry y="5.14" width="60" height="17.027027027027025" as="geometry" />
        </mxCell>
        <mxCell id="wpcL7Qo-BOGiDXtRRDBN-86" style="edgeStyle=orthogonalEdgeStyle;rounded=0;orthogonalLoop=1;jettySize=auto;html=1;exitX=1;exitY=0.25;exitDx=0;exitDy=0;entryX=0;entryY=0.5;entryDx=0;entryDy=0;strokeWidth=2;fillColor=#d5e8d4;gradientColor=#97d077;strokeColor=#00994D;" edge="1" parent="1" source="wpcL7Qo-BOGiDXtRRDBN-48" target="wpcL7Qo-BOGiDXtRRDBN-81">
          <mxGeometry relative="1" as="geometry" />
        </mxCell>
        <mxCell id="wpcL7Qo-BOGiDXtRRDBN-87" style="edgeStyle=orthogonalEdgeStyle;rounded=0;orthogonalLoop=1;jettySize=auto;html=1;exitX=1;exitY=0.25;exitDx=0;exitDy=0;strokeWidth=2;fillColor=#d5e8d4;gradientColor=#97d077;strokeColor=#00994D;" edge="1" parent="1">
          <mxGeometry relative="1" as="geometry">
            <mxPoint x="45.00999999999999" y="69.8900000000001" as="sourcePoint" />
            <mxPoint x="85.00999999999999" y="69.8900000000001" as="targetPoint" />
            <Array as="points">
              <mxPoint x="70.00999999999999" y="69.8900000000001" />
              <mxPoint x="70.00999999999999" y="69.8900000000001" />
            </Array>
          </mxGeometry>
        </mxCell>
        <mxCell id="wpcL7Qo-BOGiDXtRRDBN-88" value="1x1 conv" style="text;html=1;strokeColor=none;fillColor=none;align=center;verticalAlign=middle;whiteSpace=wrap;rounded=0;fontColor=#27ab69;" vertex="1" parent="1">
          <mxGeometry x="97.50999999999999" y="54.889999999999986" width="60" height="30" as="geometry" />
        </mxCell>
        <mxCell id="wpcL7Qo-BOGiDXtRRDBN-94" value="" style="group" vertex="1" connectable="0" parent="1">
          <mxGeometry x="420.01" y="164.89" width="60" height="90" as="geometry" />
        </mxCell>
        <mxCell id="wpcL7Qo-BOGiDXtRRDBN-95" value="" style="group" vertex="1" connectable="0" parent="wpcL7Qo-BOGiDXtRRDBN-94">
          <mxGeometry y="-10" width="60" height="100" as="geometry" />
        </mxCell>
        <mxCell id="wpcL7Qo-BOGiDXtRRDBN-96" value="" style="rounded=0;whiteSpace=wrap;html=1;fillColor=#1ba1e2;strokeColor=#006EAF;fontColor=#ffffff;" vertex="1" parent="wpcL7Qo-BOGiDXtRRDBN-95">
          <mxGeometry x="20" y="22.16" width="40" height="77.84" as="geometry" />
        </mxCell>
        <mxCell id="wpcL7Qo-BOGiDXtRRDBN-97" value="64" style="text;html=1;strokeColor=none;fillColor=none;align=center;verticalAlign=middle;whiteSpace=wrap;rounded=0;" vertex="1" parent="1">
          <mxGeometry x="430.01" y="160.02999999999997" width="60" height="17.027027027027025" as="geometry" />
        </mxCell>
        <mxCell id="wpcL7Qo-BOGiDXtRRDBN-98" style="edgeStyle=orthogonalEdgeStyle;rounded=0;orthogonalLoop=1;jettySize=auto;html=1;entryX=0;entryY=0.5;entryDx=0;entryDy=0;strokeWidth=2;fillColor=#e6d0de;gradientColor=#d5739d;strokeColor=#996185;" edge="1" parent="1" source="wpcL7Qo-BOGiDXtRRDBN-81" target="wpcL7Qo-BOGiDXtRRDBN-96">
          <mxGeometry relative="1" as="geometry" />
        </mxCell>
        <mxCell id="wpcL7Qo-BOGiDXtRRDBN-99" value="" style="group" vertex="1" connectable="0" parent="1">
          <mxGeometry x="480.01" y="164.89" width="70" height="90" as="geometry" />
        </mxCell>
        <mxCell id="wpcL7Qo-BOGiDXtRRDBN-103" value="" style="group" vertex="1" connectable="0" parent="wpcL7Qo-BOGiDXtRRDBN-99">
          <mxGeometry y="-10" width="70" height="100" as="geometry" />
        </mxCell>
        <mxCell id="wpcL7Qo-BOGiDXtRRDBN-100" value="" style="group" vertex="1" connectable="0" parent="wpcL7Qo-BOGiDXtRRDBN-103">
          <mxGeometry width="60" height="100" as="geometry" />
        </mxCell>
        <mxCell id="wpcL7Qo-BOGiDXtRRDBN-109" style="edgeStyle=orthogonalEdgeStyle;rounded=0;orthogonalLoop=1;jettySize=auto;html=1;exitX=1;exitY=0.5;exitDx=0;exitDy=0;fillColor=#e6d0de;gradientColor=#d5739d;strokeColor=#996185;strokeWidth=2;" edge="1" parent="wpcL7Qo-BOGiDXtRRDBN-100" source="wpcL7Qo-BOGiDXtRRDBN-101">
          <mxGeometry relative="1" as="geometry">
            <mxPoint x="80" y="61.315789473684276" as="targetPoint" />
          </mxGeometry>
        </mxCell>
        <mxCell id="wpcL7Qo-BOGiDXtRRDBN-101" value="" style="rounded=0;whiteSpace=wrap;html=1;fillColor=#1ba1e2;strokeColor=#006EAF;fontColor=#ffffff;" vertex="1" parent="wpcL7Qo-BOGiDXtRRDBN-100">
          <mxGeometry x="20" y="22.16" width="40" height="77.84" as="geometry" />
        </mxCell>
        <mxCell id="wpcL7Qo-BOGiDXtRRDBN-102" value="64" style="text;html=1;strokeColor=none;fillColor=none;align=center;verticalAlign=middle;whiteSpace=wrap;rounded=0;" vertex="1" parent="wpcL7Qo-BOGiDXtRRDBN-103">
          <mxGeometry x="10" y="5.14" width="60" height="17.027027027027025" as="geometry" />
        </mxCell>
        <mxCell id="wpcL7Qo-BOGiDXtRRDBN-104" value="" style="group" vertex="1" connectable="0" parent="1">
          <mxGeometry x="540.01" y="154.89" width="70" height="100" as="geometry" />
        </mxCell>
        <mxCell id="wpcL7Qo-BOGiDXtRRDBN-105" value="" style="group" vertex="1" connectable="0" parent="wpcL7Qo-BOGiDXtRRDBN-104">
          <mxGeometry width="70" height="100" as="geometry" />
        </mxCell>
        <mxCell id="wpcL7Qo-BOGiDXtRRDBN-106" value="" style="rounded=0;whiteSpace=wrap;html=1;fillColor=#1ba1e2;strokeColor=#006EAF;fontColor=#ffffff;" vertex="1" parent="wpcL7Qo-BOGiDXtRRDBN-105">
          <mxGeometry x="20" y="22.16" width="40" height="77.84" as="geometry" />
        </mxCell>
        <mxCell id="wpcL7Qo-BOGiDXtRRDBN-107" value="64" style="text;html=1;strokeColor=none;fillColor=none;align=center;verticalAlign=middle;whiteSpace=wrap;rounded=0;" vertex="1" parent="wpcL7Qo-BOGiDXtRRDBN-105">
          <mxGeometry x="10" y="5.13" width="60" height="17.027027027027025" as="geometry" />
        </mxCell>
        <mxCell id="wpcL7Qo-BOGiDXtRRDBN-108" style="edgeStyle=orthogonalEdgeStyle;rounded=0;orthogonalLoop=1;jettySize=auto;html=1;exitX=1;exitY=0.5;exitDx=0;exitDy=0;entryX=0;entryY=0.5;entryDx=0;entryDy=0;strokeWidth=2;fillColor=#e6d0de;gradientColor=#d5739d;strokeColor=#996185;" edge="1" parent="1" source="wpcL7Qo-BOGiDXtRRDBN-96" target="wpcL7Qo-BOGiDXtRRDBN-101">
          <mxGeometry relative="1" as="geometry" />
        </mxCell>
        <mxCell id="wpcL7Qo-BOGiDXtRRDBN-111" value="" style="rounded=0;whiteSpace=wrap;html=1;fillColor=#1ba1e2;strokeColor=#006EAF;fontColor=#ffffff;" vertex="1" parent="1">
          <mxGeometry x="400.01" y="1057.162162162162" width="20" height="77.83783783783782" as="geometry" />
        </mxCell>
        <mxCell id="wpcL7Qo-BOGiDXtRRDBN-112" value="" style="group" vertex="1" connectable="0" parent="1">
          <mxGeometry x="420.01" y="1045" width="190" height="90" as="geometry" />
        </mxCell>
        <mxCell id="wpcL7Qo-BOGiDXtRRDBN-113" value="" style="group" vertex="1" connectable="0" parent="wpcL7Qo-BOGiDXtRRDBN-112">
          <mxGeometry y="-10" width="60" height="100" as="geometry" />
        </mxCell>
        <mxCell id="wpcL7Qo-BOGiDXtRRDBN-114" value="" style="rounded=0;whiteSpace=wrap;html=1;fillColor=#1ba1e2;strokeColor=#006EAF;fontColor=#ffffff;" vertex="1" parent="wpcL7Qo-BOGiDXtRRDBN-113">
          <mxGeometry x="20" y="22.16" width="40" height="77.84" as="geometry" />
        </mxCell>
        <mxCell id="wpcL7Qo-BOGiDXtRRDBN-115" value="64" style="text;html=1;strokeColor=none;fillColor=none;align=center;verticalAlign=middle;whiteSpace=wrap;rounded=0;" vertex="1" parent="wpcL7Qo-BOGiDXtRRDBN-112">
          <mxGeometry x="10" y="-6.1299999999999955" width="60" height="17.027027027027025" as="geometry" />
        </mxCell>
        <mxCell id="wpcL7Qo-BOGiDXtRRDBN-122" value="64" style="text;html=1;strokeColor=none;fillColor=none;align=center;verticalAlign=middle;whiteSpace=wrap;rounded=0;" vertex="1" parent="wpcL7Qo-BOGiDXtRRDBN-112">
          <mxGeometry x="70" y="-6.13" width="60" height="17.027027027027025" as="geometry" />
        </mxCell>
        <mxCell id="wpcL7Qo-BOGiDXtRRDBN-126" value="64" style="text;html=1;strokeColor=none;fillColor=none;align=center;verticalAlign=middle;whiteSpace=wrap;rounded=0;" vertex="1" parent="wpcL7Qo-BOGiDXtRRDBN-112">
          <mxGeometry x="130" y="-6.13" width="60" height="17.027027027027025" as="geometry" />
        </mxCell>
        <mxCell id="wpcL7Qo-BOGiDXtRRDBN-116" style="edgeStyle=orthogonalEdgeStyle;rounded=0;orthogonalLoop=1;jettySize=auto;html=1;entryX=0;entryY=0.5;entryDx=0;entryDy=0;strokeWidth=2;fillColor=#e6d0de;gradientColor=#d5739d;strokeColor=#996185;" edge="1" parent="1" source="wpcL7Qo-BOGiDXtRRDBN-111" target="wpcL7Qo-BOGiDXtRRDBN-114">
          <mxGeometry relative="1" as="geometry" />
        </mxCell>
        <mxCell id="wpcL7Qo-BOGiDXtRRDBN-117" value="" style="group" vertex="1" connectable="0" parent="1">
          <mxGeometry x="480.01" y="1045" width="70" height="90" as="geometry" />
        </mxCell>
        <mxCell id="wpcL7Qo-BOGiDXtRRDBN-118" value="" style="group" vertex="1" connectable="0" parent="wpcL7Qo-BOGiDXtRRDBN-117">
          <mxGeometry y="-10" width="70" height="100" as="geometry" />
        </mxCell>
        <mxCell id="wpcL7Qo-BOGiDXtRRDBN-119" value="" style="group" vertex="1" connectable="0" parent="wpcL7Qo-BOGiDXtRRDBN-118">
          <mxGeometry width="60" height="100" as="geometry" />
        </mxCell>
        <mxCell id="wpcL7Qo-BOGiDXtRRDBN-120" style="edgeStyle=orthogonalEdgeStyle;rounded=0;orthogonalLoop=1;jettySize=auto;html=1;exitX=1;exitY=0.5;exitDx=0;exitDy=0;fillColor=#e6d0de;gradientColor=#d5739d;strokeColor=#996185;strokeWidth=2;" edge="1" parent="wpcL7Qo-BOGiDXtRRDBN-119" source="wpcL7Qo-BOGiDXtRRDBN-121">
          <mxGeometry relative="1" as="geometry">
            <mxPoint x="80" y="61.315789473684276" as="targetPoint" />
          </mxGeometry>
        </mxCell>
        <mxCell id="wpcL7Qo-BOGiDXtRRDBN-121" value="" style="rounded=0;whiteSpace=wrap;html=1;fillColor=#1ba1e2;strokeColor=#006EAF;fontColor=#ffffff;" vertex="1" parent="wpcL7Qo-BOGiDXtRRDBN-119">
          <mxGeometry x="20" y="22.16" width="40" height="77.84" as="geometry" />
        </mxCell>
        <mxCell id="wpcL7Qo-BOGiDXtRRDBN-123" value="" style="group" vertex="1" connectable="0" parent="1">
          <mxGeometry x="540.01" y="1035" width="70" height="100" as="geometry" />
        </mxCell>
        <mxCell id="wpcL7Qo-BOGiDXtRRDBN-124" value="" style="group" vertex="1" connectable="0" parent="wpcL7Qo-BOGiDXtRRDBN-123">
          <mxGeometry width="60" height="100" as="geometry" />
        </mxCell>
        <mxCell id="wpcL7Qo-BOGiDXtRRDBN-125" value="" style="rounded=0;whiteSpace=wrap;html=1;fillColor=#1ba1e2;strokeColor=#006EAF;fontColor=#ffffff;" vertex="1" parent="wpcL7Qo-BOGiDXtRRDBN-124">
          <mxGeometry x="20" y="22.16" width="40" height="77.84" as="geometry" />
        </mxCell>
        <mxCell id="wpcL7Qo-BOGiDXtRRDBN-127" style="edgeStyle=orthogonalEdgeStyle;rounded=0;orthogonalLoop=1;jettySize=auto;html=1;exitX=1;exitY=0.5;exitDx=0;exitDy=0;entryX=0;entryY=0.5;entryDx=0;entryDy=0;strokeWidth=2;fillColor=#e6d0de;gradientColor=#d5739d;strokeColor=#996185;" edge="1" parent="1" source="wpcL7Qo-BOGiDXtRRDBN-114" target="wpcL7Qo-BOGiDXtRRDBN-121">
          <mxGeometry relative="1" as="geometry" />
        </mxCell>
        <mxCell id="wpcL7Qo-BOGiDXtRRDBN-128" style="edgeStyle=orthogonalEdgeStyle;rounded=0;orthogonalLoop=1;jettySize=auto;html=1;exitX=1;exitY=0.75;exitDx=0;exitDy=0;entryX=0;entryY=0.5;entryDx=0;entryDy=0;strokeWidth=2;strokeColor=#00994D;" edge="1" parent="1" source="wpcL7Qo-BOGiDXtRRDBN-60" target="wpcL7Qo-BOGiDXtRRDBN-111">
          <mxGeometry relative="1" as="geometry" />
        </mxCell>
        <mxCell id="wpcL7Qo-BOGiDXtRRDBN-129" value="32" style="text;html=1;strokeColor=none;fillColor=none;align=center;verticalAlign=middle;whiteSpace=wrap;rounded=0;" vertex="1" parent="1">
          <mxGeometry x="380.01" y="1035" width="60" height="25" as="geometry" />
        </mxCell>
        <mxCell id="wpcL7Qo-BOGiDXtRRDBN-139" style="edgeStyle=orthogonalEdgeStyle;rounded=0;orthogonalLoop=1;jettySize=auto;html=1;exitX=1;exitY=0.75;exitDx=0;exitDy=0;entryX=0;entryY=0.5;entryDx=0;entryDy=0;strokeWidth=2;" edge="1" parent="1" source="wpcL7Qo-BOGiDXtRRDBN-106" target="wpcL7Qo-BOGiDXtRRDBN-133">
          <mxGeometry relative="1" as="geometry" />
        </mxCell>
        <mxCell id="wpcL7Qo-BOGiDXtRRDBN-140" style="edgeStyle=orthogonalEdgeStyle;rounded=0;orthogonalLoop=1;jettySize=auto;html=1;exitX=1;exitY=0.25;exitDx=0;exitDy=0;entryX=0;entryY=0.5;entryDx=0;entryDy=0;strokeWidth=2;" edge="1" parent="1" source="wpcL7Qo-BOGiDXtRRDBN-125" target="wpcL7Qo-BOGiDXtRRDBN-133">
          <mxGeometry relative="1" as="geometry" />
        </mxCell>
        <mxCell id="wpcL7Qo-BOGiDXtRRDBN-150" value="" style="group" vertex="1" connectable="0" parent="1">
          <mxGeometry x="640.01" y="124.88999999999999" width="350" height="47.84" as="geometry" />
        </mxCell>
        <mxCell id="wpcL7Qo-BOGiDXtRRDBN-151" value="" style="group" vertex="1" connectable="0" parent="wpcL7Qo-BOGiDXtRRDBN-150">
          <mxGeometry width="350" height="47.84" as="geometry" />
        </mxCell>
        <mxCell id="wpcL7Qo-BOGiDXtRRDBN-152" value="" style="rounded=0;whiteSpace=wrap;html=1;fillColor=#1ba1e2;strokeColor=#006EAF;fontColor=#ffffff;" vertex="1" parent="wpcL7Qo-BOGiDXtRRDBN-151">
          <mxGeometry x="20" y="10.601344" width="40" height="37.238656" as="geometry" />
        </mxCell>
        <mxCell id="wpcL7Qo-BOGiDXtRRDBN-153" value="64" style="text;html=1;strokeColor=none;fillColor=none;align=center;verticalAlign=middle;whiteSpace=wrap;rounded=0;" vertex="1" parent="wpcL7Qo-BOGiDXtRRDBN-151">
          <mxGeometry x="10" y="-2.93" width="60" height="8.145729729729728" as="geometry" />
        </mxCell>
        <mxCell id="wpcL7Qo-BOGiDXtRRDBN-163" value="128" style="text;html=1;strokeColor=none;fillColor=none;align=center;verticalAlign=middle;whiteSpace=wrap;rounded=0;" vertex="1" parent="wpcL7Qo-BOGiDXtRRDBN-151">
          <mxGeometry x="90" y="-2.93" width="60" height="8.145729729729728" as="geometry" />
        </mxCell>
        <mxCell id="wpcL7Qo-BOGiDXtRRDBN-167" value="128" style="text;html=1;strokeColor=none;fillColor=none;align=center;verticalAlign=middle;whiteSpace=wrap;rounded=0;" vertex="1" parent="wpcL7Qo-BOGiDXtRRDBN-151">
          <mxGeometry x="190" y="-3.7400000000000024" width="60" height="8.145729729729728" as="geometry" />
        </mxCell>
        <mxCell id="wpcL7Qo-BOGiDXtRRDBN-171" value="128" style="text;html=1;strokeColor=none;fillColor=none;align=center;verticalAlign=middle;whiteSpace=wrap;rounded=0;" vertex="1" parent="wpcL7Qo-BOGiDXtRRDBN-151">
          <mxGeometry x="290" y="-2.93" width="60" height="8.145729729729728" as="geometry" />
        </mxCell>
        <mxCell id="wpcL7Qo-BOGiDXtRRDBN-154" style="edgeStyle=orthogonalEdgeStyle;rounded=0;orthogonalLoop=1;jettySize=auto;html=1;exitX=1;exitY=0.25;exitDx=0;exitDy=0;entryX=0;entryY=0.5;entryDx=0;entryDy=0;strokeWidth=2;strokeColor=#00994D;" edge="1" parent="1" source="wpcL7Qo-BOGiDXtRRDBN-106" target="wpcL7Qo-BOGiDXtRRDBN-152">
          <mxGeometry relative="1" as="geometry" />
        </mxCell>
        <mxCell id="wpcL7Qo-BOGiDXtRRDBN-155" value="" style="group" vertex="1" connectable="0" parent="1">
          <mxGeometry x="640.01" y="1124.6" width="70" height="52.84" as="geometry" />
        </mxCell>
        <mxCell id="wpcL7Qo-BOGiDXtRRDBN-156" value="" style="group" vertex="1" connectable="0" parent="wpcL7Qo-BOGiDXtRRDBN-155">
          <mxGeometry width="70" height="52.84" as="geometry" />
        </mxCell>
        <mxCell id="wpcL7Qo-BOGiDXtRRDBN-157" value="" style="rounded=0;whiteSpace=wrap;html=1;fillColor=#1ba1e2;strokeColor=#006EAF;fontColor=#ffffff;" vertex="1" parent="wpcL7Qo-BOGiDXtRRDBN-156">
          <mxGeometry x="20" y="11.709344" width="40" height="41.130656" as="geometry" />
        </mxCell>
        <mxCell id="wpcL7Qo-BOGiDXtRRDBN-159" style="edgeStyle=orthogonalEdgeStyle;rounded=0;orthogonalLoop=1;jettySize=auto;html=1;exitX=1;exitY=0.75;exitDx=0;exitDy=0;entryX=0;entryY=0.5;entryDx=0;entryDy=0;strokeWidth=2;strokeColor=#00994D;" edge="1" parent="1" target="wpcL7Qo-BOGiDXtRRDBN-157" source="wpcL7Qo-BOGiDXtRRDBN-125">
          <mxGeometry relative="1" as="geometry">
            <mxPoint x="600.01" y="1041.8899999999999" as="sourcePoint" />
          </mxGeometry>
        </mxCell>
        <mxCell id="wpcL7Qo-BOGiDXtRRDBN-160" value="" style="group" vertex="1" connectable="0" parent="1">
          <mxGeometry x="700.01" y="124.88999999999999" width="100" height="47.84" as="geometry" />
        </mxCell>
        <mxCell id="wpcL7Qo-BOGiDXtRRDBN-161" value="" style="group" vertex="1" connectable="0" parent="wpcL7Qo-BOGiDXtRRDBN-160">
          <mxGeometry x="20" width="80" height="47.84" as="geometry" />
        </mxCell>
        <mxCell id="wpcL7Qo-BOGiDXtRRDBN-162" value="" style="rounded=0;whiteSpace=wrap;html=1;fillColor=#1ba1e2;strokeColor=#006EAF;fontColor=#ffffff;" vertex="1" parent="wpcL7Qo-BOGiDXtRRDBN-161">
          <mxGeometry y="10.6" width="80" height="37.24" as="geometry" />
        </mxCell>
        <mxCell id="wpcL7Qo-BOGiDXtRRDBN-164" value="" style="group" vertex="1" connectable="0" parent="1">
          <mxGeometry x="800.01" y="124.07999999999998" width="100" height="47.84" as="geometry" />
        </mxCell>
        <mxCell id="wpcL7Qo-BOGiDXtRRDBN-165" value="" style="group" vertex="1" connectable="0" parent="wpcL7Qo-BOGiDXtRRDBN-164">
          <mxGeometry x="20" width="80" height="47.84" as="geometry" />
        </mxCell>
        <mxCell id="wpcL7Qo-BOGiDXtRRDBN-166" value="" style="rounded=0;whiteSpace=wrap;html=1;fillColor=#1ba1e2;strokeColor=#006EAF;fontColor=#ffffff;" vertex="1" parent="wpcL7Qo-BOGiDXtRRDBN-165">
          <mxGeometry y="10.6" width="80" height="37.24" as="geometry" />
        </mxCell>
        <mxCell id="wpcL7Qo-BOGiDXtRRDBN-168" value="" style="group" vertex="1" connectable="0" parent="1">
          <mxGeometry x="900.01" y="124.88999999999999" width="100" height="47.84" as="geometry" />
        </mxCell>
        <mxCell id="wpcL7Qo-BOGiDXtRRDBN-169" value="" style="group" vertex="1" connectable="0" parent="wpcL7Qo-BOGiDXtRRDBN-168">
          <mxGeometry x="20" width="80" height="47.84" as="geometry" />
        </mxCell>
        <mxCell id="wpcL7Qo-BOGiDXtRRDBN-170" value="" style="rounded=0;whiteSpace=wrap;html=1;fillColor=#1ba1e2;strokeColor=#006EAF;fontColor=#ffffff;" vertex="1" parent="wpcL7Qo-BOGiDXtRRDBN-169">
          <mxGeometry y="10.6" width="80" height="37.24" as="geometry" />
        </mxCell>
        <mxCell id="wpcL7Qo-BOGiDXtRRDBN-173" style="edgeStyle=orthogonalEdgeStyle;rounded=0;orthogonalLoop=1;jettySize=auto;html=1;exitX=1;exitY=0.5;exitDx=0;exitDy=0;entryX=0;entryY=0.5;entryDx=0;entryDy=0;fillColor=#e6d0de;gradientColor=#d5739d;strokeColor=#996185;strokeWidth=2;" edge="1" parent="1" source="wpcL7Qo-BOGiDXtRRDBN-162" target="wpcL7Qo-BOGiDXtRRDBN-166">
          <mxGeometry relative="1" as="geometry">
            <mxPoint x="820.01" y="154.89" as="targetPoint" />
          </mxGeometry>
        </mxCell>
        <mxCell id="wpcL7Qo-BOGiDXtRRDBN-174" style="edgeStyle=orthogonalEdgeStyle;rounded=0;orthogonalLoop=1;jettySize=auto;html=1;exitX=1;exitY=0.5;exitDx=0;exitDy=0;entryX=0;entryY=0.5;entryDx=0;entryDy=0;fillColor=#e6d0de;gradientColor=#d5739d;strokeColor=#996185;strokeWidth=2;" edge="1" parent="1" source="wpcL7Qo-BOGiDXtRRDBN-166" target="wpcL7Qo-BOGiDXtRRDBN-170">
          <mxGeometry relative="1" as="geometry" />
        </mxCell>
        <mxCell id="wpcL7Qo-BOGiDXtRRDBN-175" style="edgeStyle=orthogonalEdgeStyle;rounded=0;orthogonalLoop=1;jettySize=auto;html=1;strokeWidth=2;fillColor=#e6d0de;gradientColor=#d5739d;strokeColor=#996185;entryX=0;entryY=0.5;entryDx=0;entryDy=0;exitX=1;exitY=0.5;exitDx=0;exitDy=0;" edge="1" parent="1" source="wpcL7Qo-BOGiDXtRRDBN-157" target="wpcL7Qo-BOGiDXtRRDBN-178">
          <mxGeometry relative="1" as="geometry">
            <mxPoint x="720.01" y="1156.966603773585" as="targetPoint" />
            <mxPoint x="700.01" y="1157" as="sourcePoint" />
          </mxGeometry>
        </mxCell>
        <mxCell id="wpcL7Qo-BOGiDXtRRDBN-176" value="" style="group" vertex="1" connectable="0" parent="1">
          <mxGeometry x="700.01" y="1127.9099999999999" width="100" height="47.84" as="geometry" />
        </mxCell>
        <mxCell id="wpcL7Qo-BOGiDXtRRDBN-177" value="" style="group" vertex="1" connectable="0" parent="wpcL7Qo-BOGiDXtRRDBN-176">
          <mxGeometry x="20" width="80" height="47.84" as="geometry" />
        </mxCell>
        <mxCell id="wpcL7Qo-BOGiDXtRRDBN-178" value="" style="rounded=0;whiteSpace=wrap;html=1;fillColor=#1ba1e2;strokeColor=#006EAF;fontColor=#ffffff;" vertex="1" parent="wpcL7Qo-BOGiDXtRRDBN-177">
          <mxGeometry y="10.6" width="80" height="37.24" as="geometry" />
        </mxCell>
        <mxCell id="wpcL7Qo-BOGiDXtRRDBN-179" value="128" style="text;html=1;strokeColor=none;fillColor=none;align=center;verticalAlign=middle;whiteSpace=wrap;rounded=0;" vertex="1" parent="wpcL7Qo-BOGiDXtRRDBN-177">
          <mxGeometry x="10" y="-4.49" width="60" height="8.145729729729728" as="geometry" />
        </mxCell>
        <mxCell id="wpcL7Qo-BOGiDXtRRDBN-180" value="" style="group" vertex="1" connectable="0" parent="1">
          <mxGeometry x="800.01" y="1127.1" width="100" height="47.84" as="geometry" />
        </mxCell>
        <mxCell id="wpcL7Qo-BOGiDXtRRDBN-181" value="" style="group" vertex="1" connectable="0" parent="wpcL7Qo-BOGiDXtRRDBN-180">
          <mxGeometry x="20" width="80" height="47.84" as="geometry" />
        </mxCell>
        <mxCell id="wpcL7Qo-BOGiDXtRRDBN-182" value="" style="rounded=0;whiteSpace=wrap;html=1;fillColor=#1ba1e2;strokeColor=#006EAF;fontColor=#ffffff;" vertex="1" parent="wpcL7Qo-BOGiDXtRRDBN-181">
          <mxGeometry y="10.6" width="80" height="37.24" as="geometry" />
        </mxCell>
        <mxCell id="wpcL7Qo-BOGiDXtRRDBN-183" value="128" style="text;html=1;strokeColor=none;fillColor=none;align=center;verticalAlign=middle;whiteSpace=wrap;rounded=0;" vertex="1" parent="wpcL7Qo-BOGiDXtRRDBN-181">
          <mxGeometry x="10" y="-4.49" width="60" height="8.145729729729728" as="geometry" />
        </mxCell>
        <mxCell id="wpcL7Qo-BOGiDXtRRDBN-184" value="" style="group" vertex="1" connectable="0" parent="1">
          <mxGeometry x="900.01" y="1127.9099999999999" width="100" height="47.84" as="geometry" />
        </mxCell>
        <mxCell id="wpcL7Qo-BOGiDXtRRDBN-185" value="" style="group" vertex="1" connectable="0" parent="wpcL7Qo-BOGiDXtRRDBN-184">
          <mxGeometry x="20" width="80" height="47.84" as="geometry" />
        </mxCell>
        <mxCell id="wpcL7Qo-BOGiDXtRRDBN-186" value="" style="rounded=0;whiteSpace=wrap;html=1;fillColor=#1ba1e2;strokeColor=#006EAF;fontColor=#ffffff;" vertex="1" parent="wpcL7Qo-BOGiDXtRRDBN-185">
          <mxGeometry y="10.6" width="80" height="37.24" as="geometry" />
        </mxCell>
        <mxCell id="wpcL7Qo-BOGiDXtRRDBN-187" value="128" style="text;html=1;strokeColor=none;fillColor=none;align=center;verticalAlign=middle;whiteSpace=wrap;rounded=0;" vertex="1" parent="wpcL7Qo-BOGiDXtRRDBN-185">
          <mxGeometry x="10" y="-4.49" width="60" height="8.145729729729728" as="geometry" />
        </mxCell>
        <mxCell id="wpcL7Qo-BOGiDXtRRDBN-188" style="edgeStyle=orthogonalEdgeStyle;rounded=0;orthogonalLoop=1;jettySize=auto;html=1;exitX=1;exitY=0.5;exitDx=0;exitDy=0;entryX=0;entryY=0.5;entryDx=0;entryDy=0;fillColor=#e6d0de;gradientColor=#d5739d;strokeColor=#996185;strokeWidth=2;" edge="1" parent="1" source="wpcL7Qo-BOGiDXtRRDBN-178" target="wpcL7Qo-BOGiDXtRRDBN-182">
          <mxGeometry relative="1" as="geometry">
            <mxPoint x="820.01" y="1157.9099999999999" as="targetPoint" />
          </mxGeometry>
        </mxCell>
        <mxCell id="wpcL7Qo-BOGiDXtRRDBN-189" style="edgeStyle=orthogonalEdgeStyle;rounded=0;orthogonalLoop=1;jettySize=auto;html=1;exitX=1;exitY=0.5;exitDx=0;exitDy=0;entryX=0;entryY=0.5;entryDx=0;entryDy=0;fillColor=#e6d0de;gradientColor=#d5739d;strokeColor=#996185;strokeWidth=2;" edge="1" parent="1" source="wpcL7Qo-BOGiDXtRRDBN-182" target="wpcL7Qo-BOGiDXtRRDBN-186">
          <mxGeometry relative="1" as="geometry" />
        </mxCell>
        <mxCell id="wpcL7Qo-BOGiDXtRRDBN-172" style="edgeStyle=orthogonalEdgeStyle;rounded=0;orthogonalLoop=1;jettySize=auto;html=1;exitX=1;exitY=0.5;exitDx=0;exitDy=0;strokeWidth=2;fillColor=#e6d0de;gradientColor=#d5739d;strokeColor=#996185;entryX=0;entryY=0.5;entryDx=0;entryDy=0;" edge="1" parent="1" source="wpcL7Qo-BOGiDXtRRDBN-152" target="wpcL7Qo-BOGiDXtRRDBN-162">
          <mxGeometry relative="1" as="geometry">
            <mxPoint x="720.01" y="153.9466037735849" as="targetPoint" />
          </mxGeometry>
        </mxCell>
        <mxCell id="wpcL7Qo-BOGiDXtRRDBN-200" style="edgeStyle=orthogonalEdgeStyle;rounded=0;orthogonalLoop=1;jettySize=auto;html=1;exitX=1;exitY=0.75;exitDx=0;exitDy=0;entryX=0;entryY=0.5;entryDx=0;entryDy=0;strokeWidth=2;" edge="1" parent="1" source="wpcL7Qo-BOGiDXtRRDBN-170" target="wpcL7Qo-BOGiDXtRRDBN-194">
          <mxGeometry relative="1" as="geometry" />
        </mxCell>
        <mxCell id="wpcL7Qo-BOGiDXtRRDBN-201" style="edgeStyle=orthogonalEdgeStyle;rounded=0;orthogonalLoop=1;jettySize=auto;html=1;exitX=1;exitY=0.25;exitDx=0;exitDy=0;entryX=0;entryY=0.5;entryDx=0;entryDy=0;strokeWidth=2;" edge="1" parent="1" source="wpcL7Qo-BOGiDXtRRDBN-186" target="wpcL7Qo-BOGiDXtRRDBN-194">
          <mxGeometry relative="1" as="geometry">
            <mxPoint x="1010.01" y="854.89" as="targetPoint" />
          </mxGeometry>
        </mxCell>
        <mxCell id="wpcL7Qo-BOGiDXtRRDBN-216" value="" style="group" vertex="1" connectable="0" parent="1">
          <mxGeometry x="1220.01" y="184.89" width="160" height="34.78" as="geometry" />
        </mxCell>
        <mxCell id="wpcL7Qo-BOGiDXtRRDBN-217" value="" style="group" vertex="1" connectable="0" parent="wpcL7Qo-BOGiDXtRRDBN-216">
          <mxGeometry y="4.780000000000001" width="160" height="30" as="geometry" />
        </mxCell>
        <mxCell id="wpcL7Qo-BOGiDXtRRDBN-218" value="" style="group" vertex="1" connectable="0" parent="wpcL7Qo-BOGiDXtRRDBN-217">
          <mxGeometry width="160" height="30" as="geometry" />
        </mxCell>
        <mxCell id="wpcL7Qo-BOGiDXtRRDBN-219" value="" style="rounded=0;whiteSpace=wrap;html=1;fillColor=#1ba1e2;strokeColor=#006EAF;fontColor=#ffffff;" vertex="1" parent="wpcL7Qo-BOGiDXtRRDBN-218">
          <mxGeometry y="4.78" width="160" height="20.22" as="geometry" />
        </mxCell>
        <mxCell id="wpcL7Qo-BOGiDXtRRDBN-220" value="256" style="text;html=1;strokeColor=none;fillColor=none;align=center;verticalAlign=middle;whiteSpace=wrap;rounded=0;" vertex="1" parent="wpcL7Qo-BOGiDXtRRDBN-216">
          <mxGeometry x="50" width="60" height="4.77608108108108" as="geometry" />
        </mxCell>
        <mxCell id="wpcL7Qo-BOGiDXtRRDBN-231" value="" style="group" vertex="1" connectable="0" parent="1">
          <mxGeometry x="1320.01" y="224.89" width="160" height="34.78" as="geometry" />
        </mxCell>
        <mxCell id="wpcL7Qo-BOGiDXtRRDBN-232" value="" style="group" vertex="1" connectable="0" parent="wpcL7Qo-BOGiDXtRRDBN-231">
          <mxGeometry y="4.780000000000001" width="160" height="30" as="geometry" />
        </mxCell>
        <mxCell id="wpcL7Qo-BOGiDXtRRDBN-233" value="" style="group" vertex="1" connectable="0" parent="wpcL7Qo-BOGiDXtRRDBN-232">
          <mxGeometry width="160" height="30" as="geometry" />
        </mxCell>
        <mxCell id="wpcL7Qo-BOGiDXtRRDBN-234" value="" style="rounded=0;whiteSpace=wrap;html=1;fillColor=#1ba1e2;strokeColor=#006EAF;fontColor=#ffffff;" vertex="1" parent="wpcL7Qo-BOGiDXtRRDBN-233">
          <mxGeometry y="4.78" width="160" height="20.22" as="geometry" />
        </mxCell>
        <mxCell id="wpcL7Qo-BOGiDXtRRDBN-235" value="256" style="text;html=1;strokeColor=none;fillColor=none;align=center;verticalAlign=middle;whiteSpace=wrap;rounded=0;" vertex="1" parent="wpcL7Qo-BOGiDXtRRDBN-231">
          <mxGeometry x="50" width="60" height="4.77608108108108" as="geometry" />
        </mxCell>
        <mxCell id="wpcL7Qo-BOGiDXtRRDBN-236" value="" style="group" vertex="1" connectable="0" parent="1">
          <mxGeometry x="1120.01" y="144.89" width="160" height="34.78" as="geometry" />
        </mxCell>
        <mxCell id="wpcL7Qo-BOGiDXtRRDBN-237" value="" style="group" vertex="1" connectable="0" parent="wpcL7Qo-BOGiDXtRRDBN-236">
          <mxGeometry y="4.780000000000001" width="160" height="30" as="geometry" />
        </mxCell>
        <mxCell id="wpcL7Qo-BOGiDXtRRDBN-238" value="" style="group" vertex="1" connectable="0" parent="wpcL7Qo-BOGiDXtRRDBN-237">
          <mxGeometry width="160" height="30" as="geometry" />
        </mxCell>
        <mxCell id="wpcL7Qo-BOGiDXtRRDBN-239" value="" style="rounded=0;whiteSpace=wrap;html=1;fillColor=#1ba1e2;strokeColor=#006EAF;fontColor=#ffffff;" vertex="1" parent="wpcL7Qo-BOGiDXtRRDBN-238">
          <mxGeometry y="4.78" width="160" height="20.22" as="geometry" />
        </mxCell>
        <mxCell id="wpcL7Qo-BOGiDXtRRDBN-240" value="256" style="text;html=1;strokeColor=none;fillColor=none;align=center;verticalAlign=middle;whiteSpace=wrap;rounded=0;" vertex="1" parent="wpcL7Qo-BOGiDXtRRDBN-236">
          <mxGeometry x="50" width="60" height="4.77608108108108" as="geometry" />
        </mxCell>
        <mxCell id="wpcL7Qo-BOGiDXtRRDBN-241" value="" style="group" vertex="1" connectable="0" parent="1">
          <mxGeometry x="1060.01" y="104.88999999999999" width="80" height="34.78" as="geometry" />
        </mxCell>
        <mxCell id="wpcL7Qo-BOGiDXtRRDBN-242" value="" style="group" vertex="1" connectable="0" parent="wpcL7Qo-BOGiDXtRRDBN-241">
          <mxGeometry y="4.780000000000001" width="80" height="30" as="geometry" />
        </mxCell>
        <mxCell id="wpcL7Qo-BOGiDXtRRDBN-243" value="" style="group" vertex="1" connectable="0" parent="wpcL7Qo-BOGiDXtRRDBN-242">
          <mxGeometry width="80" height="30" as="geometry" />
        </mxCell>
        <mxCell id="wpcL7Qo-BOGiDXtRRDBN-244" value="" style="rounded=0;whiteSpace=wrap;html=1;fillColor=#1ba1e2;strokeColor=#006EAF;fontColor=#ffffff;" vertex="1" parent="wpcL7Qo-BOGiDXtRRDBN-243">
          <mxGeometry y="4.78" width="80" height="20.22" as="geometry" />
        </mxCell>
        <mxCell id="wpcL7Qo-BOGiDXtRRDBN-245" value="128" style="text;html=1;strokeColor=none;fillColor=none;align=center;verticalAlign=middle;whiteSpace=wrap;rounded=0;" vertex="1" parent="wpcL7Qo-BOGiDXtRRDBN-241">
          <mxGeometry x="25" width="30" height="4.77608108108108" as="geometry" />
        </mxCell>
        <mxCell id="wpcL7Qo-BOGiDXtRRDBN-246" style="edgeStyle=orthogonalEdgeStyle;rounded=0;orthogonalLoop=1;jettySize=auto;html=1;exitX=1;exitY=0.25;exitDx=0;exitDy=0;entryX=0;entryY=0.5;entryDx=0;entryDy=0;strokeWidth=2;strokeColor=#00994D;" edge="1" parent="1" source="wpcL7Qo-BOGiDXtRRDBN-170" target="wpcL7Qo-BOGiDXtRRDBN-244">
          <mxGeometry relative="1" as="geometry">
            <mxPoint x="1090.01" y="157.89" as="sourcePoint" />
            <mxPoint x="1150.01" y="114.88999999999999" as="targetPoint" />
          </mxGeometry>
        </mxCell>
        <mxCell id="wpcL7Qo-BOGiDXtRRDBN-247" style="edgeStyle=orthogonalEdgeStyle;rounded=0;orthogonalLoop=1;jettySize=auto;html=1;exitX=0.5;exitY=1;exitDx=0;exitDy=0;strokeWidth=2;fillColor=#e6d0de;gradientColor=#d5739d;strokeColor=#996185;entryX=0;entryY=0.5;entryDx=0;entryDy=0;" edge="1" parent="1" source="wpcL7Qo-BOGiDXtRRDBN-244" target="wpcL7Qo-BOGiDXtRRDBN-239">
          <mxGeometry relative="1" as="geometry">
            <mxPoint x="1070.01" y="164.89" as="targetPoint" />
            <mxPoint x="1170.01" y="177.71999999999997" as="sourcePoint" />
            <Array as="points">
              <mxPoint x="1100.01" y="164.89" />
            </Array>
          </mxGeometry>
        </mxCell>
        <mxCell id="wpcL7Qo-BOGiDXtRRDBN-248" style="edgeStyle=orthogonalEdgeStyle;rounded=0;orthogonalLoop=1;jettySize=auto;html=1;exitX=0.5;exitY=1;exitDx=0;exitDy=0;entryX=0;entryY=0.5;entryDx=0;entryDy=0;strokeWidth=2;fillColor=#e6d0de;gradientColor=#d5739d;strokeColor=#996185;" edge="1" parent="1" source="wpcL7Qo-BOGiDXtRRDBN-239" target="wpcL7Qo-BOGiDXtRRDBN-219">
          <mxGeometry relative="1" as="geometry">
            <Array as="points">
              <mxPoint x="1200.01" y="204.89" />
            </Array>
          </mxGeometry>
        </mxCell>
        <mxCell id="wpcL7Qo-BOGiDXtRRDBN-249" style="edgeStyle=orthogonalEdgeStyle;rounded=0;orthogonalLoop=1;jettySize=auto;html=1;exitX=0.5;exitY=1;exitDx=0;exitDy=0;entryX=0;entryY=0.5;entryDx=0;entryDy=0;strokeWidth=2;fillColor=#e6d0de;gradientColor=#d5739d;strokeColor=#996185;" edge="1" parent="1" source="wpcL7Qo-BOGiDXtRRDBN-219" target="wpcL7Qo-BOGiDXtRRDBN-234">
          <mxGeometry relative="1" as="geometry">
            <Array as="points">
              <mxPoint x="1300.01" y="244.89" />
            </Array>
          </mxGeometry>
        </mxCell>
        <mxCell id="wpcL7Qo-BOGiDXtRRDBN-274" value="" style="group" vertex="1" connectable="0" parent="1">
          <mxGeometry x="1220.01" y="1085" width="160" height="34.78" as="geometry" />
        </mxCell>
        <mxCell id="wpcL7Qo-BOGiDXtRRDBN-275" value="" style="group" vertex="1" connectable="0" parent="wpcL7Qo-BOGiDXtRRDBN-274">
          <mxGeometry y="4.780000000000001" width="160" height="30" as="geometry" />
        </mxCell>
        <mxCell id="wpcL7Qo-BOGiDXtRRDBN-276" value="" style="group" vertex="1" connectable="0" parent="wpcL7Qo-BOGiDXtRRDBN-275">
          <mxGeometry width="160" height="30" as="geometry" />
        </mxCell>
        <mxCell id="wpcL7Qo-BOGiDXtRRDBN-277" value="" style="rounded=0;whiteSpace=wrap;html=1;fillColor=#1ba1e2;strokeColor=#006EAF;fontColor=#ffffff;" vertex="1" parent="wpcL7Qo-BOGiDXtRRDBN-276">
          <mxGeometry y="4.78" width="160" height="20.22" as="geometry" />
        </mxCell>
        <mxCell id="wpcL7Qo-BOGiDXtRRDBN-278" value="256" style="text;html=1;strokeColor=none;fillColor=none;align=center;verticalAlign=middle;whiteSpace=wrap;rounded=0;" vertex="1" parent="wpcL7Qo-BOGiDXtRRDBN-274">
          <mxGeometry x="35" y="-5" width="60" height="9.78" as="geometry" />
        </mxCell>
        <mxCell id="wpcL7Qo-BOGiDXtRRDBN-279" value="" style="group" vertex="1" connectable="0" parent="1">
          <mxGeometry x="1320.01" y="1045" width="160" height="34.78" as="geometry" />
        </mxCell>
        <mxCell id="wpcL7Qo-BOGiDXtRRDBN-280" value="" style="group" vertex="1" connectable="0" parent="wpcL7Qo-BOGiDXtRRDBN-279">
          <mxGeometry y="4.780000000000001" width="160" height="30" as="geometry" />
        </mxCell>
        <mxCell id="wpcL7Qo-BOGiDXtRRDBN-281" value="" style="group" vertex="1" connectable="0" parent="wpcL7Qo-BOGiDXtRRDBN-280">
          <mxGeometry width="160" height="30" as="geometry" />
        </mxCell>
        <mxCell id="wpcL7Qo-BOGiDXtRRDBN-282" value="" style="rounded=0;whiteSpace=wrap;html=1;fillColor=#1ba1e2;strokeColor=#006EAF;fontColor=#ffffff;" vertex="1" parent="wpcL7Qo-BOGiDXtRRDBN-281">
          <mxGeometry y="4.78" width="160" height="20.22" as="geometry" />
        </mxCell>
        <mxCell id="wpcL7Qo-BOGiDXtRRDBN-283" value="256" style="text;html=1;strokeColor=none;fillColor=none;align=center;verticalAlign=middle;whiteSpace=wrap;rounded=0;" vertex="1" parent="wpcL7Qo-BOGiDXtRRDBN-279">
          <mxGeometry x="50" y="-5" width="60" height="9.78" as="geometry" />
        </mxCell>
        <mxCell id="wpcL7Qo-BOGiDXtRRDBN-284" value="" style="group" vertex="1" connectable="0" parent="1">
          <mxGeometry x="1120.01" y="1127.1" width="160" height="34.78" as="geometry" />
        </mxCell>
        <mxCell id="wpcL7Qo-BOGiDXtRRDBN-285" value="" style="group" vertex="1" connectable="0" parent="wpcL7Qo-BOGiDXtRRDBN-284">
          <mxGeometry y="4.780000000000001" width="160" height="30" as="geometry" />
        </mxCell>
        <mxCell id="wpcL7Qo-BOGiDXtRRDBN-286" value="" style="group" vertex="1" connectable="0" parent="wpcL7Qo-BOGiDXtRRDBN-285">
          <mxGeometry width="160" height="30" as="geometry" />
        </mxCell>
        <mxCell id="wpcL7Qo-BOGiDXtRRDBN-287" value="" style="rounded=0;whiteSpace=wrap;html=1;fillColor=#1ba1e2;strokeColor=#006EAF;fontColor=#ffffff;" vertex="1" parent="wpcL7Qo-BOGiDXtRRDBN-286">
          <mxGeometry y="4.78" width="160" height="20.22" as="geometry" />
        </mxCell>
        <mxCell id="wpcL7Qo-BOGiDXtRRDBN-288" value="256" style="text;html=1;strokeColor=none;fillColor=none;align=center;verticalAlign=middle;whiteSpace=wrap;rounded=0;" vertex="1" parent="wpcL7Qo-BOGiDXtRRDBN-284">
          <mxGeometry x="35" y="-5" width="60" height="9.78" as="geometry" />
        </mxCell>
        <mxCell id="wpcL7Qo-BOGiDXtRRDBN-289" value="" style="group" vertex="1" connectable="0" parent="1">
          <mxGeometry x="1060.01" y="1165" width="80" height="34.78" as="geometry" />
        </mxCell>
        <mxCell id="wpcL7Qo-BOGiDXtRRDBN-290" value="" style="group" vertex="1" connectable="0" parent="wpcL7Qo-BOGiDXtRRDBN-289">
          <mxGeometry y="4.780000000000001" width="80" height="30" as="geometry" />
        </mxCell>
        <mxCell id="wpcL7Qo-BOGiDXtRRDBN-291" value="" style="group" vertex="1" connectable="0" parent="wpcL7Qo-BOGiDXtRRDBN-290">
          <mxGeometry width="80" height="30" as="geometry" />
        </mxCell>
        <mxCell id="wpcL7Qo-BOGiDXtRRDBN-292" value="" style="rounded=0;whiteSpace=wrap;html=1;fillColor=#1ba1e2;strokeColor=#006EAF;fontColor=#ffffff;" vertex="1" parent="wpcL7Qo-BOGiDXtRRDBN-291">
          <mxGeometry y="4.78" width="80" height="20.22" as="geometry" />
        </mxCell>
        <mxCell id="wpcL7Qo-BOGiDXtRRDBN-293" value="128" style="text;html=1;strokeColor=none;fillColor=none;align=center;verticalAlign=middle;whiteSpace=wrap;rounded=0;" vertex="1" parent="wpcL7Qo-BOGiDXtRRDBN-289">
          <mxGeometry x="10" y="-4.889999999999986" width="30" height="9.67" as="geometry" />
        </mxCell>
        <mxCell id="wpcL7Qo-BOGiDXtRRDBN-294" style="edgeStyle=orthogonalEdgeStyle;rounded=0;orthogonalLoop=1;jettySize=auto;html=1;exitX=1;exitY=0.75;exitDx=0;exitDy=0;entryX=0;entryY=0.5;entryDx=0;entryDy=0;strokeWidth=2;strokeColor=#00994D;" edge="1" parent="1" target="wpcL7Qo-BOGiDXtRRDBN-292" source="wpcL7Qo-BOGiDXtRRDBN-186">
          <mxGeometry relative="1" as="geometry">
            <mxPoint x="1000.01" y="1227.83" as="sourcePoint" />
            <mxPoint x="1150.01" y="1197.83" as="targetPoint" />
          </mxGeometry>
        </mxCell>
        <mxCell id="wpcL7Qo-BOGiDXtRRDBN-295" style="edgeStyle=orthogonalEdgeStyle;rounded=0;orthogonalLoop=1;jettySize=auto;html=1;strokeWidth=2;fillColor=#e6d0de;gradientColor=#d5739d;strokeColor=#996185;entryX=0;entryY=0.5;entryDx=0;entryDy=0;exitX=0.5;exitY=0;exitDx=0;exitDy=0;" edge="1" parent="1" source="wpcL7Qo-BOGiDXtRRDBN-292" target="wpcL7Qo-BOGiDXtRRDBN-287">
          <mxGeometry relative="1" as="geometry">
            <mxPoint x="1125.01" y="1075" as="targetPoint" />
            <mxPoint x="1095.01" y="1145" as="sourcePoint" />
            <Array as="points">
              <mxPoint x="1100.01" y="1147" />
              <mxPoint x="1120.01" y="1147" />
            </Array>
          </mxGeometry>
        </mxCell>
        <mxCell id="wpcL7Qo-BOGiDXtRRDBN-296" style="edgeStyle=orthogonalEdgeStyle;rounded=0;orthogonalLoop=1;jettySize=auto;html=1;exitX=0.5;exitY=0;exitDx=0;exitDy=0;entryX=0;entryY=0.5;entryDx=0;entryDy=0;strokeWidth=2;fillColor=#e6d0de;gradientColor=#d5739d;strokeColor=#996185;" edge="1" parent="1" source="wpcL7Qo-BOGiDXtRRDBN-287" target="wpcL7Qo-BOGiDXtRRDBN-277">
          <mxGeometry relative="1" as="geometry">
            <Array as="points">
              <mxPoint x="1200.01" y="1105" />
            </Array>
          </mxGeometry>
        </mxCell>
        <mxCell id="wpcL7Qo-BOGiDXtRRDBN-297" style="edgeStyle=orthogonalEdgeStyle;rounded=0;orthogonalLoop=1;jettySize=auto;html=1;exitX=0.5;exitY=0;exitDx=0;exitDy=0;entryX=0;entryY=0.5;entryDx=0;entryDy=0;strokeWidth=2;fillColor=#e6d0de;gradientColor=#d5739d;strokeColor=#996185;" edge="1" parent="1" source="wpcL7Qo-BOGiDXtRRDBN-277" target="wpcL7Qo-BOGiDXtRRDBN-282">
          <mxGeometry relative="1" as="geometry">
            <Array as="points">
              <mxPoint x="1300.01" y="1065" />
            </Array>
          </mxGeometry>
        </mxCell>
        <mxCell id="wpcL7Qo-BOGiDXtRRDBN-305" style="edgeStyle=orthogonalEdgeStyle;rounded=0;orthogonalLoop=1;jettySize=auto;html=1;exitX=1;exitY=0.75;exitDx=0;exitDy=0;entryX=0;entryY=0.5;entryDx=0;entryDy=0;strokeWidth=2;" edge="1" parent="1" source="wpcL7Qo-BOGiDXtRRDBN-234" target="wpcL7Qo-BOGiDXtRRDBN-302">
          <mxGeometry relative="1" as="geometry">
            <Array as="points">
              <mxPoint x="1480.01" y="410" />
              <mxPoint x="1510.01" y="410" />
              <mxPoint x="1510.01" y="850" />
            </Array>
          </mxGeometry>
        </mxCell>
        <mxCell id="wpcL7Qo-BOGiDXtRRDBN-306" style="edgeStyle=orthogonalEdgeStyle;rounded=0;orthogonalLoop=1;jettySize=auto;html=1;exitX=1;exitY=0.25;exitDx=0;exitDy=0;entryX=0;entryY=0.5;entryDx=0;entryDy=0;strokeWidth=2;" edge="1" parent="1" source="wpcL7Qo-BOGiDXtRRDBN-282" target="wpcL7Qo-BOGiDXtRRDBN-302">
          <mxGeometry relative="1" as="geometry">
            <mxPoint x="1700.01" y="734.8899999999998" as="targetPoint" />
          </mxGeometry>
        </mxCell>
        <mxCell id="wpcL7Qo-BOGiDXtRRDBN-319" value="" style="group" vertex="1" connectable="0" parent="1">
          <mxGeometry x="1540.01" y="80" width="160" height="34.78" as="geometry" />
        </mxCell>
        <mxCell id="wpcL7Qo-BOGiDXtRRDBN-320" value="" style="group" vertex="1" connectable="0" parent="wpcL7Qo-BOGiDXtRRDBN-319">
          <mxGeometry y="4.780000000000001" width="160" height="30" as="geometry" />
        </mxCell>
        <mxCell id="wpcL7Qo-BOGiDXtRRDBN-321" value="" style="group" vertex="1" connectable="0" parent="wpcL7Qo-BOGiDXtRRDBN-320">
          <mxGeometry width="160" height="30" as="geometry" />
        </mxCell>
        <mxCell id="wpcL7Qo-BOGiDXtRRDBN-322" value="" style="rounded=0;whiteSpace=wrap;html=1;fillColor=#1ba1e2;strokeColor=#006EAF;fontColor=#ffffff;" vertex="1" parent="wpcL7Qo-BOGiDXtRRDBN-321">
          <mxGeometry y="15" width="160" height="10" as="geometry" />
        </mxCell>
        <mxCell id="wpcL7Qo-BOGiDXtRRDBN-323" value="256" style="text;html=1;strokeColor=none;fillColor=none;align=center;verticalAlign=middle;whiteSpace=wrap;rounded=0;" vertex="1" parent="wpcL7Qo-BOGiDXtRRDBN-321">
          <mxGeometry x="50" y="5.219999999999999" width="60" height="4.77608108108108" as="geometry" />
        </mxCell>
        <mxCell id="wpcL7Qo-BOGiDXtRRDBN-324" style="edgeStyle=orthogonalEdgeStyle;rounded=0;orthogonalLoop=1;jettySize=auto;html=1;exitX=1;exitY=0.25;exitDx=0;exitDy=0;entryX=0;entryY=0.5;entryDx=0;entryDy=0;strokeWidth=2;strokeColor=#00994D;" edge="1" parent="1" source="wpcL7Qo-BOGiDXtRRDBN-234" target="wpcL7Qo-BOGiDXtRRDBN-322">
          <mxGeometry relative="1" as="geometry" />
        </mxCell>
        <mxCell id="wpcL7Qo-BOGiDXtRRDBN-325" value="" style="group" vertex="1" connectable="0" parent="1">
          <mxGeometry x="1640.01" y="99.78000000000003" width="320" height="34.78" as="geometry" />
        </mxCell>
        <mxCell id="wpcL7Qo-BOGiDXtRRDBN-326" value="" style="group" vertex="1" connectable="0" parent="wpcL7Qo-BOGiDXtRRDBN-325">
          <mxGeometry y="4.78" width="320" height="30" as="geometry" />
        </mxCell>
        <mxCell id="wpcL7Qo-BOGiDXtRRDBN-327" value="" style="group" vertex="1" connectable="0" parent="wpcL7Qo-BOGiDXtRRDBN-326">
          <mxGeometry width="320" height="30" as="geometry" />
        </mxCell>
        <mxCell id="wpcL7Qo-BOGiDXtRRDBN-328" value="" style="rounded=0;whiteSpace=wrap;html=1;fillColor=#1ba1e2;strokeColor=#006EAF;fontColor=#ffffff;" vertex="1" parent="wpcL7Qo-BOGiDXtRRDBN-327">
          <mxGeometry y="15" width="320" height="10" as="geometry" />
        </mxCell>
        <mxCell id="wpcL7Qo-BOGiDXtRRDBN-329" value="512" style="text;html=1;strokeColor=none;fillColor=none;align=center;verticalAlign=middle;whiteSpace=wrap;rounded=0;" vertex="1" parent="wpcL7Qo-BOGiDXtRRDBN-327">
          <mxGeometry x="100" y="5.219999999999999" width="120" height="4.77608108108108" as="geometry" />
        </mxCell>
        <mxCell id="wpcL7Qo-BOGiDXtRRDBN-335" style="edgeStyle=orthogonalEdgeStyle;rounded=0;orthogonalLoop=1;jettySize=auto;html=1;exitX=0.5;exitY=1;exitDx=0;exitDy=0;entryX=0;entryY=0.5;entryDx=0;entryDy=0;strokeWidth=2;fillColor=#e6d0de;gradientColor=#d5739d;strokeColor=#996185;" edge="1" parent="1" source="wpcL7Qo-BOGiDXtRRDBN-322" target="wpcL7Qo-BOGiDXtRRDBN-328">
          <mxGeometry relative="1" as="geometry">
            <Array as="points">
              <mxPoint x="1620.01" y="124.88999999999999" />
            </Array>
          </mxGeometry>
        </mxCell>
        <mxCell id="wpcL7Qo-BOGiDXtRRDBN-336" value="" style="group" vertex="1" connectable="0" parent="1">
          <mxGeometry x="1820.01" y="120.11000000000001" width="320" height="34.78" as="geometry" />
        </mxCell>
        <mxCell id="wpcL7Qo-BOGiDXtRRDBN-337" value="" style="group" vertex="1" connectable="0" parent="wpcL7Qo-BOGiDXtRRDBN-336">
          <mxGeometry y="4.78" width="320" height="30" as="geometry" />
        </mxCell>
        <mxCell id="wpcL7Qo-BOGiDXtRRDBN-338" value="" style="group" vertex="1" connectable="0" parent="wpcL7Qo-BOGiDXtRRDBN-337">
          <mxGeometry width="320" height="30" as="geometry" />
        </mxCell>
        <mxCell id="wpcL7Qo-BOGiDXtRRDBN-339" value="" style="rounded=0;whiteSpace=wrap;html=1;fillColor=#1ba1e2;strokeColor=#006EAF;fontColor=#ffffff;" vertex="1" parent="wpcL7Qo-BOGiDXtRRDBN-338">
          <mxGeometry y="15" width="320" height="10" as="geometry" />
        </mxCell>
        <mxCell id="wpcL7Qo-BOGiDXtRRDBN-340" value="512" style="text;html=1;strokeColor=none;fillColor=none;align=center;verticalAlign=middle;whiteSpace=wrap;rounded=0;" vertex="1" parent="wpcL7Qo-BOGiDXtRRDBN-338">
          <mxGeometry x="100" y="5.219999999999999" width="120" height="4.77608108108108" as="geometry" />
        </mxCell>
        <mxCell id="wpcL7Qo-BOGiDXtRRDBN-341" style="edgeStyle=orthogonalEdgeStyle;rounded=0;orthogonalLoop=1;jettySize=auto;html=1;entryX=0;entryY=0.5;entryDx=0;entryDy=0;strokeWidth=2;fillColor=#e6d0de;gradientColor=#d5739d;strokeColor=#996185;exitX=0.5;exitY=1;exitDx=0;exitDy=0;" edge="1" parent="1" target="wpcL7Qo-BOGiDXtRRDBN-339" source="wpcL7Qo-BOGiDXtRRDBN-328">
          <mxGeometry relative="1" as="geometry">
            <mxPoint x="2045.0100000000002" y="75" as="sourcePoint" />
            <Array as="points">
              <mxPoint x="1800.01" y="144.89" />
            </Array>
          </mxGeometry>
        </mxCell>
        <mxCell id="wpcL7Qo-BOGiDXtRRDBN-349" value="" style="group" vertex="1" connectable="0" parent="1">
          <mxGeometry x="2000.01" y="142.26999999999998" width="320" height="34.78" as="geometry" />
        </mxCell>
        <mxCell id="wpcL7Qo-BOGiDXtRRDBN-350" value="" style="group" vertex="1" connectable="0" parent="wpcL7Qo-BOGiDXtRRDBN-349">
          <mxGeometry y="4.78" width="320" height="30" as="geometry" />
        </mxCell>
        <mxCell id="wpcL7Qo-BOGiDXtRRDBN-351" value="" style="group" vertex="1" connectable="0" parent="wpcL7Qo-BOGiDXtRRDBN-350">
          <mxGeometry width="320" height="30" as="geometry" />
        </mxCell>
        <mxCell id="wpcL7Qo-BOGiDXtRRDBN-352" value="" style="rounded=0;whiteSpace=wrap;html=1;fillColor=#1ba1e2;strokeColor=#006EAF;fontColor=#ffffff;" vertex="1" parent="wpcL7Qo-BOGiDXtRRDBN-351">
          <mxGeometry y="15" width="320" height="10" as="geometry" />
        </mxCell>
        <mxCell id="wpcL7Qo-BOGiDXtRRDBN-353" value="512" style="text;html=1;strokeColor=none;fillColor=none;align=center;verticalAlign=middle;whiteSpace=wrap;rounded=0;" vertex="1" parent="wpcL7Qo-BOGiDXtRRDBN-351">
          <mxGeometry x="100" y="5.219999999999999" width="120" height="4.77608108108108" as="geometry" />
        </mxCell>
        <mxCell id="wpcL7Qo-BOGiDXtRRDBN-354" style="edgeStyle=orthogonalEdgeStyle;rounded=0;orthogonalLoop=1;jettySize=auto;html=1;exitX=0.5;exitY=1;exitDx=0;exitDy=0;entryX=0;entryY=0.5;entryDx=0;entryDy=0;strokeWidth=2;fillColor=#e6d0de;gradientColor=#d5739d;strokeColor=#996185;" edge="1" parent="1" target="wpcL7Qo-BOGiDXtRRDBN-352" source="wpcL7Qo-BOGiDXtRRDBN-339">
          <mxGeometry relative="1" as="geometry">
            <mxPoint x="2380.01" y="105" as="sourcePoint" />
            <Array as="points">
              <mxPoint x="1980.01" y="166.89" />
            </Array>
          </mxGeometry>
        </mxCell>
        <mxCell id="wpcL7Qo-BOGiDXtRRDBN-355" value="" style="group" vertex="1" connectable="0" parent="1">
          <mxGeometry x="1540.01" y="1009.67" width="870" height="34.78" as="geometry" />
        </mxCell>
        <mxCell id="wpcL7Qo-BOGiDXtRRDBN-356" value="" style="group" vertex="1" connectable="0" parent="wpcL7Qo-BOGiDXtRRDBN-355">
          <mxGeometry y="4.780000000000001" width="870" height="30" as="geometry" />
        </mxCell>
        <mxCell id="wpcL7Qo-BOGiDXtRRDBN-357" value="" style="group" vertex="1" connectable="0" parent="wpcL7Qo-BOGiDXtRRDBN-356">
          <mxGeometry width="870" height="30" as="geometry" />
        </mxCell>
        <mxCell id="wpcL7Qo-BOGiDXtRRDBN-360" style="edgeStyle=orthogonalEdgeStyle;rounded=0;orthogonalLoop=1;jettySize=auto;html=1;exitX=1;exitY=0.75;exitDx=0;exitDy=0;entryX=0;entryY=0.5;entryDx=0;entryDy=0;strokeWidth=2;strokeColor=#00994D;" edge="1" parent="1" target="wpcL7Qo-BOGiDXtRRDBN-358" source="wpcL7Qo-BOGiDXtRRDBN-282">
          <mxGeometry relative="1" as="geometry">
            <mxPoint x="1680.01" y="1049.8899999999999" as="sourcePoint" />
          </mxGeometry>
        </mxCell>
        <mxCell id="wpcL7Qo-BOGiDXtRRDBN-379" value="" style="group" vertex="1" connectable="0" parent="1">
          <mxGeometry x="2380.01" y="939.89" width="1255" height="36.880000000000045" as="geometry" />
        </mxCell>
        <mxCell id="wpcL7Qo-BOGiDXtRRDBN-380" value="" style="group" vertex="1" connectable="0" parent="wpcL7Qo-BOGiDXtRRDBN-379">
          <mxGeometry y="-19.889999999999997" width="320" height="30" as="geometry" />
        </mxCell>
        <mxCell id="wpcL7Qo-BOGiDXtRRDBN-381" value="" style="group" vertex="1" connectable="0" parent="wpcL7Qo-BOGiDXtRRDBN-380">
          <mxGeometry width="320" height="30" as="geometry" />
        </mxCell>
        <mxCell id="wpcL7Qo-BOGiDXtRRDBN-382" value="" style="rounded=0;whiteSpace=wrap;html=1;fillColor=#1ba1e2;strokeColor=#006EAF;fontColor=#ffffff;" vertex="1" parent="wpcL7Qo-BOGiDXtRRDBN-381">
          <mxGeometry y="15" width="320" height="10" as="geometry" />
        </mxCell>
        <mxCell id="wpcL7Qo-BOGiDXtRRDBN-385" value="" style="group" vertex="1" connectable="0" parent="wpcL7Qo-BOGiDXtRRDBN-379">
          <mxGeometry x="320" y="-19.779999999999983" width="320" height="30" as="geometry" />
        </mxCell>
        <mxCell id="wpcL7Qo-BOGiDXtRRDBN-386" value="" style="group" vertex="1" connectable="0" parent="wpcL7Qo-BOGiDXtRRDBN-385">
          <mxGeometry width="320" height="30" as="geometry" />
        </mxCell>
        <mxCell id="wpcL7Qo-BOGiDXtRRDBN-387" value="" style="rounded=0;whiteSpace=wrap;html=1;fillColor=#1ba1e2;strokeColor=#006EAF;fontColor=#ffffff;" vertex="1" parent="wpcL7Qo-BOGiDXtRRDBN-386">
          <mxGeometry y="15" width="320" height="10" as="geometry" />
        </mxCell>
        <mxCell id="wpcL7Qo-BOGiDXtRRDBN-383" value="1024" style="text;html=1;strokeColor=none;fillColor=none;align=center;verticalAlign=middle;whiteSpace=wrap;rounded=0;" vertex="1" parent="wpcL7Qo-BOGiDXtRRDBN-386">
          <mxGeometry x="-60" y="0.4399999999999986" width="120" height="4.77608108108108" as="geometry" />
        </mxCell>
        <mxCell id="wpcL7Qo-BOGiDXtRRDBN-396" value="" style="group" vertex="1" connectable="0" parent="wpcL7Qo-BOGiDXtRRDBN-379">
          <mxGeometry x="660" y="-19.779999999999983" width="320" height="30" as="geometry" />
        </mxCell>
        <mxCell id="wpcL7Qo-BOGiDXtRRDBN-397" value="" style="group" vertex="1" connectable="0" parent="wpcL7Qo-BOGiDXtRRDBN-396">
          <mxGeometry width="320" height="30" as="geometry" />
        </mxCell>
        <mxCell id="wpcL7Qo-BOGiDXtRRDBN-398" value="" style="rounded=0;whiteSpace=wrap;html=1;fillColor=#1ba1e2;strokeColor=#006EAF;fontColor=#ffffff;" vertex="1" parent="wpcL7Qo-BOGiDXtRRDBN-397">
          <mxGeometry y="15" width="320" height="10" as="geometry" />
        </mxCell>
        <mxCell id="wpcL7Qo-BOGiDXtRRDBN-399" value="512" style="text;html=1;strokeColor=none;fillColor=none;align=center;verticalAlign=middle;whiteSpace=wrap;rounded=0;" vertex="1" parent="wpcL7Qo-BOGiDXtRRDBN-397">
          <mxGeometry x="85" y="5.219999999999999" width="120" height="4.77608108108108" as="geometry" />
        </mxCell>
        <mxCell id="wpcL7Qo-BOGiDXtRRDBN-417" style="edgeStyle=orthogonalEdgeStyle;rounded=0;orthogonalLoop=1;jettySize=auto;html=1;exitX=1;exitY=0.5;exitDx=0;exitDy=0;entryX=0;entryY=0.5;entryDx=0;entryDy=0;strokeWidth=2;strokeColor=#7A3E00;" edge="1" parent="wpcL7Qo-BOGiDXtRRDBN-379" source="wpcL7Qo-BOGiDXtRRDBN-398" target="wpcL7Qo-BOGiDXtRRDBN-415">
          <mxGeometry relative="1" as="geometry">
            <mxPoint x="1040" y="-19.779999999999976" as="targetPoint" />
          </mxGeometry>
        </mxCell>
        <mxCell id="wpcL7Qo-BOGiDXtRRDBN-412" value="" style="group" vertex="1" connectable="0" parent="wpcL7Qo-BOGiDXtRRDBN-379">
          <mxGeometry x="1095" y="-19.279999999999955" width="160" height="34.78" as="geometry" />
        </mxCell>
        <mxCell id="wpcL7Qo-BOGiDXtRRDBN-416" value="256" style="text;html=1;strokeColor=none;fillColor=none;align=center;verticalAlign=middle;whiteSpace=wrap;rounded=0;" vertex="1" parent="wpcL7Qo-BOGiDXtRRDBN-412">
          <mxGeometry x="-10" width="60" height="4.77608108108108" as="geometry" />
        </mxCell>
        <mxCell id="wpcL7Qo-BOGiDXtRRDBN-400" style="edgeStyle=orthogonalEdgeStyle;rounded=0;orthogonalLoop=1;jettySize=auto;html=1;strokeWidth=2;strokeColor=#004C99;exitX=1;exitY=0.5;exitDx=0;exitDy=0;entryX=0;entryY=0.5;entryDx=0;entryDy=0;" edge="1" parent="wpcL7Qo-BOGiDXtRRDBN-379" source="wpcL7Qo-BOGiDXtRRDBN-387" target="wpcL7Qo-BOGiDXtRRDBN-398">
          <mxGeometry relative="1" as="geometry">
            <mxPoint x="645" y="20.220000000000024" as="sourcePoint" />
            <mxPoint x="660" y="0.2200000000002511" as="targetPoint" />
          </mxGeometry>
        </mxCell>
        <mxCell id="wpcL7Qo-BOGiDXtRRDBN-413" value="" style="group" vertex="1" connectable="0" parent="wpcL7Qo-BOGiDXtRRDBN-379">
          <mxGeometry x="1040" y="-14.499999999999954" width="160" height="30" as="geometry" />
        </mxCell>
        <mxCell id="wpcL7Qo-BOGiDXtRRDBN-414" value="" style="group" vertex="1" connectable="0" parent="wpcL7Qo-BOGiDXtRRDBN-413">
          <mxGeometry width="160" height="30" as="geometry" />
        </mxCell>
        <mxCell id="wpcL7Qo-BOGiDXtRRDBN-415" value="" style="rounded=0;whiteSpace=wrap;html=1;fillColor=#1ba1e2;strokeColor=#006EAF;fontColor=#ffffff;" vertex="1" parent="wpcL7Qo-BOGiDXtRRDBN-414">
          <mxGeometry y="4.78" width="160" height="20.22" as="geometry" />
        </mxCell>
        <mxCell id="wpcL7Qo-BOGiDXtRRDBN-401" style="edgeStyle=orthogonalEdgeStyle;rounded=0;orthogonalLoop=1;jettySize=auto;html=1;exitX=1;exitY=0.5;exitDx=0;exitDy=0;entryX=0;entryY=0.5;entryDx=0;entryDy=0;strokeWidth=2;" edge="1" parent="1" source="wpcL7Qo-BOGiDXtRRDBN-352" target="wpcL7Qo-BOGiDXtRRDBN-382">
          <mxGeometry relative="1" as="geometry">
            <mxPoint x="2755.01" y="585" as="targetPoint" />
          </mxGeometry>
        </mxCell>
        <mxCell id="wpcL7Qo-BOGiDXtRRDBN-402" style="edgeStyle=orthogonalEdgeStyle;rounded=0;orthogonalLoop=1;jettySize=auto;html=1;exitX=1;exitY=0.5;exitDx=0;exitDy=0;entryX=0;entryY=0.5;entryDx=0;entryDy=0;strokeWidth=2;" edge="1" parent="1" source="wpcL7Qo-BOGiDXtRRDBN-376" target="wpcL7Qo-BOGiDXtRRDBN-382">
          <mxGeometry relative="1" as="geometry">
            <mxPoint x="2750.01" y="739.9999999999998" as="targetPoint" />
          </mxGeometry>
        </mxCell>
        <mxCell id="wpcL7Qo-BOGiDXtRRDBN-418" style="edgeStyle=orthogonalEdgeStyle;rounded=0;orthogonalLoop=1;jettySize=auto;html=1;exitX=1;exitY=0.5;exitDx=0;exitDy=0;entryX=0;entryY=0.5;entryDx=0;entryDy=0;strokeWidth=2;strokeColor=#7A3E00;" edge="1" parent="1">
          <mxGeometry relative="1" as="geometry">
            <mxPoint x="45" y="169.8900000000001" as="sourcePoint" />
            <mxPoint x="85" y="169.8900000000001" as="targetPoint" />
            <Array as="points">
              <mxPoint x="65.00999999999999" y="169.8900000000001" />
              <mxPoint x="65.00999999999999" y="169.8900000000001" />
            </Array>
          </mxGeometry>
        </mxCell>
        <mxCell id="wpcL7Qo-BOGiDXtRRDBN-419" value="&lt;font&gt;3x3 conv transpose&lt;br&gt;&lt;/font&gt;" style="text;html=1;strokeColor=none;fillColor=none;align=center;verticalAlign=middle;whiteSpace=wrap;rounded=0;fontColor=#7A3E00;" vertex="1" parent="1">
          <mxGeometry x="100.00999999999999" y="154.8900000000001" width="110" height="30" as="geometry" />
        </mxCell>
        <mxCell id="wpcL7Qo-BOGiDXtRRDBN-428" style="rounded=0;orthogonalLoop=1;jettySize=auto;html=1;strokeWidth=2;jumpStyle=arc;jumpSize=18;endArrow=none;endFill=0;exitX=1;exitY=0.5;exitDx=0;exitDy=0;" edge="1" parent="1" source="wpcL7Qo-BOGiDXtRRDBN-315">
          <mxGeometry relative="1" as="geometry">
            <mxPoint x="2040.0100000000002" y="840" as="sourcePoint" />
            <mxPoint x="3040.01" y="900" as="targetPoint" />
          </mxGeometry>
        </mxCell>
        <mxCell id="wpcL7Qo-BOGiDXtRRDBN-431" value="" style="endArrow=classic;html=1;rounded=0;strokeWidth=2;edgeStyle=orthogonalEdgeStyle;entryX=0;entryY=0.5;entryDx=0;entryDy=0;" edge="1" parent="1" target="wpcL7Qo-BOGiDXtRRDBN-425">
          <mxGeometry width="50" height="50" relative="1" as="geometry">
            <mxPoint x="3040.01" y="900" as="sourcePoint" />
            <mxPoint x="3540.01" y="850" as="targetPoint" />
            <Array as="points">
              <mxPoint x="3165.01" y="900" />
              <mxPoint x="3165.01" y="900" />
            </Array>
          </mxGeometry>
        </mxCell>
        <mxCell id="wpcL7Qo-BOGiDXtRRDBN-426" style="edgeStyle=orthogonalEdgeStyle;rounded=0;orthogonalLoop=1;jettySize=auto;html=1;entryX=0;entryY=0.5;entryDx=0;entryDy=0;strokeWidth=2;exitX=1;exitY=0.5;exitDx=0;exitDy=0;" edge="1" parent="1" source="wpcL7Qo-BOGiDXtRRDBN-415" target="wpcL7Qo-BOGiDXtRRDBN-425">
          <mxGeometry relative="1" as="geometry">
            <mxPoint x="3495.01" y="651.49" as="sourcePoint" />
          </mxGeometry>
        </mxCell>
        <mxCell id="wpcL7Qo-BOGiDXtRRDBN-424" value="" style="rounded=0;whiteSpace=wrap;html=1;fillColor=#1ba1e2;strokeColor=#006EAF;fontColor=#ffffff;" vertex="1" parent="1">
          <mxGeometry x="3800.01" y="889.78" width="160" height="20.22" as="geometry" />
        </mxCell>
        <mxCell id="wpcL7Qo-BOGiDXtRRDBN-425" value="" style="rounded=0;whiteSpace=wrap;html=1;fillColor=#1ba1e2;strokeColor=#006EAF;fontColor=#ffffff;" vertex="1" parent="1">
          <mxGeometry x="3640.01" y="890" width="160" height="20.22" as="geometry" />
        </mxCell>
        <mxCell id="wpcL7Qo-BOGiDXtRRDBN-433" value="512" style="text;html=1;strokeColor=none;fillColor=none;align=center;verticalAlign=middle;whiteSpace=wrap;rounded=0;" vertex="1" parent="1">
          <mxGeometry x="3770.01" y="865" width="60" height="30" as="geometry" />
        </mxCell>
        <mxCell id="wpcL7Qo-BOGiDXtRRDBN-441" value="" style="group" vertex="1" connectable="0" parent="1">
          <mxGeometry x="3980.01" y="880.11" width="160" height="34.78" as="geometry" />
        </mxCell>
        <mxCell id="wpcL7Qo-BOGiDXtRRDBN-442" value="" style="group" vertex="1" connectable="0" parent="wpcL7Qo-BOGiDXtRRDBN-441">
          <mxGeometry y="4.780000000000001" width="160" height="30" as="geometry" />
        </mxCell>
        <mxCell id="wpcL7Qo-BOGiDXtRRDBN-443" value="" style="group" vertex="1" connectable="0" parent="wpcL7Qo-BOGiDXtRRDBN-442">
          <mxGeometry width="160" height="30" as="geometry" />
        </mxCell>
        <mxCell id="wpcL7Qo-BOGiDXtRRDBN-444" value="" style="rounded=0;whiteSpace=wrap;html=1;fillColor=#1ba1e2;strokeColor=#006EAF;fontColor=#ffffff;" vertex="1" parent="wpcL7Qo-BOGiDXtRRDBN-443">
          <mxGeometry y="4.78" width="160" height="20.22" as="geometry" />
        </mxCell>
        <mxCell id="wpcL7Qo-BOGiDXtRRDBN-445" value="256" style="text;html=1;strokeColor=none;fillColor=none;align=center;verticalAlign=middle;whiteSpace=wrap;rounded=0;" vertex="1" parent="wpcL7Qo-BOGiDXtRRDBN-441">
          <mxGeometry x="50" width="60" height="4.77608108108108" as="geometry" />
        </mxCell>
        <mxCell id="wpcL7Qo-BOGiDXtRRDBN-446" style="edgeStyle=orthogonalEdgeStyle;rounded=0;orthogonalLoop=1;jettySize=auto;html=1;strokeWidth=2;fillColor=#e6d0de;strokeColor=#996185;gradientColor=#d5739d;" edge="1" parent="1" source="wpcL7Qo-BOGiDXtRRDBN-424" target="wpcL7Qo-BOGiDXtRRDBN-444">
          <mxGeometry relative="1" as="geometry" />
        </mxCell>
        <mxCell id="wpcL7Qo-BOGiDXtRRDBN-447" value="" style="group" vertex="1" connectable="0" parent="1">
          <mxGeometry x="4160.01" y="880" width="160" height="34.78" as="geometry" />
        </mxCell>
        <mxCell id="wpcL7Qo-BOGiDXtRRDBN-448" value="" style="group" vertex="1" connectable="0" parent="wpcL7Qo-BOGiDXtRRDBN-447">
          <mxGeometry y="4.780000000000001" width="160" height="30" as="geometry" />
        </mxCell>
        <mxCell id="wpcL7Qo-BOGiDXtRRDBN-449" value="" style="group" vertex="1" connectable="0" parent="wpcL7Qo-BOGiDXtRRDBN-448">
          <mxGeometry width="160" height="30" as="geometry" />
        </mxCell>
        <mxCell id="wpcL7Qo-BOGiDXtRRDBN-450" value="" style="rounded=0;whiteSpace=wrap;html=1;fillColor=#1ba1e2;strokeColor=#006EAF;fontColor=#ffffff;" vertex="1" parent="wpcL7Qo-BOGiDXtRRDBN-449">
          <mxGeometry y="4.78" width="160" height="20.22" as="geometry" />
        </mxCell>
        <mxCell id="wpcL7Qo-BOGiDXtRRDBN-451" value="256" style="text;html=1;strokeColor=none;fillColor=none;align=center;verticalAlign=middle;whiteSpace=wrap;rounded=0;" vertex="1" parent="wpcL7Qo-BOGiDXtRRDBN-447">
          <mxGeometry x="50" width="60" height="4.77608108108108" as="geometry" />
        </mxCell>
        <mxCell id="wpcL7Qo-BOGiDXtRRDBN-452" style="edgeStyle=orthogonalEdgeStyle;rounded=0;orthogonalLoop=1;jettySize=auto;html=1;entryX=0;entryY=0.5;entryDx=0;entryDy=0;strokeWidth=2;fillColor=#e6d0de;gradientColor=#d5739d;strokeColor=#996185;" edge="1" parent="1" source="wpcL7Qo-BOGiDXtRRDBN-444" target="wpcL7Qo-BOGiDXtRRDBN-450">
          <mxGeometry relative="1" as="geometry" />
        </mxCell>
        <mxCell id="wpcL7Qo-BOGiDXtRRDBN-528" style="edgeStyle=orthogonalEdgeStyle;rounded=0;orthogonalLoop=1;jettySize=auto;html=1;entryX=0;entryY=0.5;entryDx=0;entryDy=0;strokeWidth=2;" edge="1" parent="1" source="wpcL7Qo-BOGiDXtRRDBN-508" target="wpcL7Qo-BOGiDXtRRDBN-526">
          <mxGeometry relative="1" as="geometry" />
        </mxCell>
        <mxCell id="wpcL7Qo-BOGiDXtRRDBN-508" value="" style="rounded=0;whiteSpace=wrap;html=1;fillColor=#1ba1e2;strokeColor=#006EAF;fontColor=#ffffff;" vertex="1" parent="1">
          <mxGeometry x="4380.01" y="881.27" width="80" height="37.24" as="geometry" />
        </mxCell>
        <mxCell id="wpcL7Qo-BOGiDXtRRDBN-509" value="128" style="text;html=1;strokeColor=none;fillColor=none;align=center;verticalAlign=middle;whiteSpace=wrap;rounded=0;" vertex="1" parent="1">
          <mxGeometry x="4390.01" y="870" width="60" height="8.145729729729728" as="geometry" />
        </mxCell>
        <mxCell id="wpcL7Qo-BOGiDXtRRDBN-511" style="edgeStyle=orthogonalEdgeStyle;rounded=0;orthogonalLoop=1;jettySize=auto;html=1;exitX=1;exitY=0.5;exitDx=0;exitDy=0;entryX=0;entryY=0.5;entryDx=0;entryDy=0;strokeWidth=2;strokeColor=#7A3E00;" edge="1" parent="1" source="wpcL7Qo-BOGiDXtRRDBN-450" target="wpcL7Qo-BOGiDXtRRDBN-508">
          <mxGeometry relative="1" as="geometry">
            <mxPoint x="4205.01" y="854.6" as="sourcePoint" />
            <mxPoint x="4225.01" y="802.6" as="targetPoint" />
          </mxGeometry>
        </mxCell>
        <mxCell id="wpcL7Qo-BOGiDXtRRDBN-526" value="" style="rounded=0;whiteSpace=wrap;html=1;fillColor=#1ba1e2;strokeColor=#006EAF;fontColor=#ffffff;" vertex="1" parent="1">
          <mxGeometry x="4520.01" y="830.6" width="80" height="37.24" as="geometry" />
        </mxCell>
        <mxCell id="wpcL7Qo-BOGiDXtRRDBN-541" style="edgeStyle=orthogonalEdgeStyle;rounded=0;orthogonalLoop=1;jettySize=auto;html=1;entryX=0;entryY=0.5;entryDx=0;entryDy=0;strokeWidth=2;fillColor=#e6d0de;gradientColor=#d5739d;strokeColor=#996185;" edge="1" parent="1" source="wpcL7Qo-BOGiDXtRRDBN-527" target="wpcL7Qo-BOGiDXtRRDBN-533">
          <mxGeometry relative="1" as="geometry" />
        </mxCell>
        <mxCell id="wpcL7Qo-BOGiDXtRRDBN-527" value="" style="rounded=0;whiteSpace=wrap;html=1;fillColor=#1ba1e2;strokeColor=#006EAF;fontColor=#ffffff;" vertex="1" parent="1">
          <mxGeometry x="4600.01" y="830.6" width="80" height="37.24" as="geometry" />
        </mxCell>
        <mxCell id="wpcL7Qo-BOGiDXtRRDBN-524" style="rounded=0;orthogonalLoop=1;jettySize=auto;html=1;strokeWidth=2;jumpStyle=arc;jumpSize=18;endArrow=none;endFill=0;" edge="1" parent="1" source="wpcL7Qo-BOGiDXtRRDBN-204">
          <mxGeometry relative="1" as="geometry">
            <mxPoint x="4490.01" y="849" as="targetPoint" />
          </mxGeometry>
        </mxCell>
        <mxCell id="wpcL7Qo-BOGiDXtRRDBN-530" value="256" style="text;html=1;strokeColor=none;fillColor=none;align=center;verticalAlign=middle;whiteSpace=wrap;rounded=0;" vertex="1" parent="1">
          <mxGeometry x="4570.01" y="819.89" width="60" height="5.11" as="geometry" />
        </mxCell>
        <mxCell id="wpcL7Qo-BOGiDXtRRDBN-531" value="" style="group" vertex="1" connectable="0" parent="1">
          <mxGeometry x="4680.01" y="820" width="100" height="47.84" as="geometry" />
        </mxCell>
        <mxCell id="wpcL7Qo-BOGiDXtRRDBN-532" value="" style="group" vertex="1" connectable="0" parent="wpcL7Qo-BOGiDXtRRDBN-531">
          <mxGeometry x="20" width="80" height="47.84" as="geometry" />
        </mxCell>
        <mxCell id="wpcL7Qo-BOGiDXtRRDBN-533" value="" style="rounded=0;whiteSpace=wrap;html=1;fillColor=#1ba1e2;strokeColor=#006EAF;fontColor=#ffffff;" vertex="1" parent="wpcL7Qo-BOGiDXtRRDBN-532">
          <mxGeometry y="10.6" width="80" height="37.24" as="geometry" />
        </mxCell>
        <mxCell id="wpcL7Qo-BOGiDXtRRDBN-534" value="128" style="text;html=1;strokeColor=none;fillColor=none;align=center;verticalAlign=middle;whiteSpace=wrap;rounded=0;" vertex="1" parent="wpcL7Qo-BOGiDXtRRDBN-532">
          <mxGeometry x="10" y="-4.89" width="60" height="13.26" as="geometry" />
        </mxCell>
        <mxCell id="wpcL7Qo-BOGiDXtRRDBN-535" value="" style="group" vertex="1" connectable="0" parent="1">
          <mxGeometry x="4780.01" y="820.22" width="100" height="47.84" as="geometry" />
        </mxCell>
        <mxCell id="wpcL7Qo-BOGiDXtRRDBN-536" value="" style="group" vertex="1" connectable="0" parent="wpcL7Qo-BOGiDXtRRDBN-535">
          <mxGeometry x="20" width="80" height="47.84" as="geometry" />
        </mxCell>
        <mxCell id="wpcL7Qo-BOGiDXtRRDBN-548" style="edgeStyle=orthogonalEdgeStyle;rounded=0;orthogonalLoop=1;jettySize=auto;html=1;exitX=1;exitY=0.5;exitDx=0;exitDy=0;strokeWidth=2;strokeColor=#7A3E00;" edge="1" parent="wpcL7Qo-BOGiDXtRRDBN-536" source="wpcL7Qo-BOGiDXtRRDBN-537">
          <mxGeometry relative="1" as="geometry">
            <mxPoint x="140" y="29.180000000000064" as="targetPoint" />
          </mxGeometry>
        </mxCell>
        <mxCell id="wpcL7Qo-BOGiDXtRRDBN-537" value="" style="rounded=0;whiteSpace=wrap;html=1;fillColor=#1ba1e2;strokeColor=#006EAF;fontColor=#ffffff;" vertex="1" parent="wpcL7Qo-BOGiDXtRRDBN-536">
          <mxGeometry y="10.6" width="80" height="37.24" as="geometry" />
        </mxCell>
        <mxCell id="wpcL7Qo-BOGiDXtRRDBN-538" value="128" style="text;html=1;strokeColor=none;fillColor=none;align=center;verticalAlign=middle;whiteSpace=wrap;rounded=0;" vertex="1" parent="wpcL7Qo-BOGiDXtRRDBN-536">
          <mxGeometry x="10" y="-5" width="60" height="13.37" as="geometry" />
        </mxCell>
        <mxCell id="wpcL7Qo-BOGiDXtRRDBN-542" style="edgeStyle=orthogonalEdgeStyle;rounded=0;orthogonalLoop=1;jettySize=auto;html=1;exitX=1;exitY=0.5;exitDx=0;exitDy=0;entryX=0;entryY=0.5;entryDx=0;entryDy=0;strokeWidth=2;fillColor=#e6d0de;gradientColor=#d5739d;strokeColor=#996185;" edge="1" parent="1" source="wpcL7Qo-BOGiDXtRRDBN-533" target="wpcL7Qo-BOGiDXtRRDBN-537">
          <mxGeometry relative="1" as="geometry" />
        </mxCell>
        <mxCell id="wpcL7Qo-BOGiDXtRRDBN-543" value="" style="group" vertex="1" connectable="0" parent="1">
          <mxGeometry x="4920.01" y="790.11" width="70" height="99.89" as="geometry" />
        </mxCell>
        <mxCell id="wpcL7Qo-BOGiDXtRRDBN-544" value="" style="group" vertex="1" connectable="0" parent="wpcL7Qo-BOGiDXtRRDBN-543">
          <mxGeometry width="70" height="99.89" as="geometry" />
        </mxCell>
        <mxCell id="wpcL7Qo-BOGiDXtRRDBN-546" value="" style="rounded=0;whiteSpace=wrap;html=1;fillColor=#1ba1e2;strokeColor=#006EAF;fontColor=#ffffff;" vertex="1" parent="wpcL7Qo-BOGiDXtRRDBN-544">
          <mxGeometry x="20" y="22.135624" width="40" height="77.75437600000001" as="geometry" />
        </mxCell>
        <mxCell id="wpcL7Qo-BOGiDXtRRDBN-547" value="64" style="text;html=1;strokeColor=none;fillColor=none;align=center;verticalAlign=middle;whiteSpace=wrap;rounded=0;" vertex="1" parent="wpcL7Qo-BOGiDXtRRDBN-544">
          <mxGeometry x="10" y="5.13" width="60" height="17.008297297297293" as="geometry" />
        </mxCell>
        <mxCell id="wpcL7Qo-BOGiDXtRRDBN-550" value="" style="group" vertex="1" connectable="0" parent="1">
          <mxGeometry x="5020.01" y="730" width="90" height="100" as="geometry" />
        </mxCell>
        <mxCell id="wpcL7Qo-BOGiDXtRRDBN-551" value="" style="group" vertex="1" connectable="0" parent="wpcL7Qo-BOGiDXtRRDBN-550">
          <mxGeometry width="90" height="100" as="geometry" />
        </mxCell>
        <mxCell id="wpcL7Qo-BOGiDXtRRDBN-553" value="" style="rounded=0;whiteSpace=wrap;html=1;fillColor=#1ba1e2;strokeColor=#006EAF;fontColor=#ffffff;" vertex="1" parent="wpcL7Qo-BOGiDXtRRDBN-551">
          <mxGeometry x="20" y="22.16" width="40" height="77.84" as="geometry" />
        </mxCell>
        <mxCell id="wpcL7Qo-BOGiDXtRRDBN-554" value="128" style="text;html=1;strokeColor=none;fillColor=none;align=center;verticalAlign=middle;whiteSpace=wrap;rounded=0;" vertex="1" parent="wpcL7Qo-BOGiDXtRRDBN-551">
          <mxGeometry x="30" y="5" width="60" height="17.027027027027025" as="geometry" />
        </mxCell>
        <mxCell id="wpcL7Qo-BOGiDXtRRDBN-453" style="rounded=0;orthogonalLoop=1;jettySize=auto;html=1;exitX=1;exitY=0.5;exitDx=0;exitDy=0;strokeWidth=2;jumpStyle=arc;jumpSize=18;endArrow=none;endFill=0;edgeStyle=orthogonalEdgeStyle;" edge="1" parent="1" source="wpcL7Qo-BOGiDXtRRDBN-75">
          <mxGeometry relative="1" as="geometry">
            <mxPoint x="5350.01" y="670.11" as="targetPoint" />
            <Array as="points">
              <mxPoint x="5350.01" y="670.11" />
            </Array>
          </mxGeometry>
        </mxCell>
        <mxCell id="wpcL7Qo-BOGiDXtRRDBN-545" style="edgeStyle=orthogonalEdgeStyle;rounded=0;orthogonalLoop=1;jettySize=auto;html=1;entryX=0;entryY=0.5;entryDx=0;entryDy=0;strokeWidth=2;" edge="1" parent="1" source="wpcL7Qo-BOGiDXtRRDBN-546" target="wpcL7Qo-BOGiDXtRRDBN-553">
          <mxGeometry relative="1" as="geometry">
            <mxPoint x="5000.01" y="765" as="targetPoint" />
          </mxGeometry>
        </mxCell>
        <mxCell id="wpcL7Qo-BOGiDXtRRDBN-562" value="" style="group" vertex="1" connectable="0" parent="1">
          <mxGeometry x="5060.01" y="730" width="70" height="100" as="geometry" />
        </mxCell>
        <mxCell id="wpcL7Qo-BOGiDXtRRDBN-563" value="" style="group" vertex="1" connectable="0" parent="wpcL7Qo-BOGiDXtRRDBN-562">
          <mxGeometry width="60" height="100" as="geometry" />
        </mxCell>
        <mxCell id="wpcL7Qo-BOGiDXtRRDBN-564" value="" style="rounded=0;whiteSpace=wrap;html=1;fillColor=#1ba1e2;strokeColor=#006EAF;fontColor=#ffffff;" vertex="1" parent="wpcL7Qo-BOGiDXtRRDBN-563">
          <mxGeometry x="20" y="22.16" width="40" height="77.84" as="geometry" />
        </mxCell>
        <mxCell id="wpcL7Qo-BOGiDXtRRDBN-158" value="64" style="text;html=1;strokeColor=none;fillColor=none;align=center;verticalAlign=middle;whiteSpace=wrap;rounded=0;" vertex="1" parent="1">
          <mxGeometry x="650.01" y="1120.1100000000001" width="60" height="13.49" as="geometry" />
        </mxCell>
        <mxCell id="wpcL7Qo-BOGiDXtRRDBN-454" style="edgeStyle=orthogonalEdgeStyle;rounded=0;orthogonalLoop=1;jettySize=auto;html=1;strokeWidth=2;jumpSize=18;jumpStyle=arc;entryX=0;entryY=0.5;entryDx=0;entryDy=0;" edge="1" parent="1" source="wpcL7Qo-BOGiDXtRRDBN-147" target="wpcL7Qo-BOGiDXtRRDBN-553">
          <mxGeometry relative="1" as="geometry">
            <mxPoint x="4855.01" y="791.11" as="targetPoint" />
          </mxGeometry>
        </mxCell>
        <mxCell id="wpcL7Qo-BOGiDXtRRDBN-570" value="" style="group" vertex="1" connectable="0" parent="1">
          <mxGeometry x="5120.01" y="730.11" width="70" height="100" as="geometry" />
        </mxCell>
        <mxCell id="wpcL7Qo-BOGiDXtRRDBN-571" value="" style="group" vertex="1" connectable="0" parent="wpcL7Qo-BOGiDXtRRDBN-570">
          <mxGeometry width="70" height="100" as="geometry" />
        </mxCell>
        <mxCell id="wpcL7Qo-BOGiDXtRRDBN-572" value="" style="rounded=0;whiteSpace=wrap;html=1;fillColor=#1ba1e2;strokeColor=#006EAF;fontColor=#ffffff;" vertex="1" parent="wpcL7Qo-BOGiDXtRRDBN-571">
          <mxGeometry x="20" y="22.16" width="40" height="77.84" as="geometry" />
        </mxCell>
        <mxCell id="wpcL7Qo-BOGiDXtRRDBN-573" value="64" style="text;html=1;strokeColor=none;fillColor=none;align=center;verticalAlign=middle;whiteSpace=wrap;rounded=0;" vertex="1" parent="wpcL7Qo-BOGiDXtRRDBN-571">
          <mxGeometry x="10" y="5.13" width="60" height="17.027027027027025" as="geometry" />
        </mxCell>
        <mxCell id="wpcL7Qo-BOGiDXtRRDBN-574" value="" style="group" vertex="1" connectable="0" parent="1">
          <mxGeometry x="5180.01" y="728.59" width="70" height="100" as="geometry" />
        </mxCell>
        <mxCell id="wpcL7Qo-BOGiDXtRRDBN-575" value="" style="group" vertex="1" connectable="0" parent="wpcL7Qo-BOGiDXtRRDBN-574">
          <mxGeometry width="70" height="100" as="geometry" />
        </mxCell>
        <mxCell id="wpcL7Qo-BOGiDXtRRDBN-576" value="" style="rounded=0;whiteSpace=wrap;html=1;fillColor=#1ba1e2;strokeColor=#006EAF;fontColor=#ffffff;" vertex="1" parent="wpcL7Qo-BOGiDXtRRDBN-575">
          <mxGeometry x="20" y="22.16" width="40" height="77.84" as="geometry" />
        </mxCell>
        <mxCell id="wpcL7Qo-BOGiDXtRRDBN-577" value="64" style="text;html=1;strokeColor=none;fillColor=none;align=center;verticalAlign=middle;whiteSpace=wrap;rounded=0;" vertex="1" parent="wpcL7Qo-BOGiDXtRRDBN-575">
          <mxGeometry x="10" y="5.13" width="60" height="17.027027027027025" as="geometry" />
        </mxCell>
        <mxCell id="wpcL7Qo-BOGiDXtRRDBN-578" style="edgeStyle=orthogonalEdgeStyle;rounded=0;orthogonalLoop=1;jettySize=auto;html=1;entryX=0;entryY=0.5;entryDx=0;entryDy=0;strokeWidth=2;fillColor=#e6d0de;gradientColor=#d5739d;strokeColor=#996185;" edge="1" parent="1" source="wpcL7Qo-BOGiDXtRRDBN-564" target="wpcL7Qo-BOGiDXtRRDBN-572">
          <mxGeometry relative="1" as="geometry" />
        </mxCell>
        <mxCell id="wpcL7Qo-BOGiDXtRRDBN-580" style="edgeStyle=orthogonalEdgeStyle;rounded=0;orthogonalLoop=1;jettySize=auto;html=1;entryX=0;entryY=0.5;entryDx=0;entryDy=0;strokeWidth=2;fillColor=#e6d0de;gradientColor=#d5739d;strokeColor=#996185;" edge="1" parent="1" target="wpcL7Qo-BOGiDXtRRDBN-576">
          <mxGeometry relative="1" as="geometry">
            <mxPoint x="5180.01" y="790.11" as="sourcePoint" />
          </mxGeometry>
        </mxCell>
        <mxCell id="wpcL7Qo-BOGiDXtRRDBN-581" value="" style="group" vertex="1" connectable="0" parent="1">
          <mxGeometry x="5380.01" y="585.11" width="80" height="185" as="geometry" />
        </mxCell>
        <mxCell id="wpcL7Qo-BOGiDXtRRDBN-582" value="64" style="text;html=1;strokeColor=none;fillColor=none;align=center;verticalAlign=middle;whiteSpace=wrap;rounded=0;" vertex="1" parent="wpcL7Qo-BOGiDXtRRDBN-581">
          <mxGeometry x="-10" width="60" height="30" as="geometry" />
        </mxCell>
        <mxCell id="wpcL7Qo-BOGiDXtRRDBN-583" value="" style="rounded=0;whiteSpace=wrap;html=1;fillColor=#1ba1e2;strokeColor=#006EAF;fontColor=#ffffff;" vertex="1" parent="wpcL7Qo-BOGiDXtRRDBN-581">
          <mxGeometry y="5" width="20" height="160" as="geometry" />
        </mxCell>
        <mxCell id="wpcL7Qo-BOGiDXtRRDBN-584" value="" style="rounded=0;whiteSpace=wrap;html=1;fillColor=#1ba1e2;strokeColor=#006EAF;fontColor=#ffffff;" vertex="1" parent="wpcL7Qo-BOGiDXtRRDBN-581">
          <mxGeometry x="20" y="5" width="20" height="160" as="geometry" />
        </mxCell>
        <mxCell id="wpcL7Qo-BOGiDXtRRDBN-585" value="" style="rounded=0;whiteSpace=wrap;html=1;fillColor=#1ba1e2;strokeColor=#006EAF;fontColor=#ffffff;" vertex="1" parent="wpcL7Qo-BOGiDXtRRDBN-581">
          <mxGeometry x="60" y="5" width="20" height="160" as="geometry" />
        </mxCell>
        <mxCell id="wpcL7Qo-BOGiDXtRRDBN-586" style="edgeStyle=orthogonalEdgeStyle;rounded=0;orthogonalLoop=1;jettySize=auto;html=1;exitX=1;exitY=0.5;exitDx=0;exitDy=0;entryX=0;entryY=0.5;entryDx=0;entryDy=0;strokeWidth=2;fillColor=#e6d0de;gradientColor=#d5739d;strokeColor=#996185;" edge="1" parent="wpcL7Qo-BOGiDXtRRDBN-581" source="wpcL7Qo-BOGiDXtRRDBN-584" target="wpcL7Qo-BOGiDXtRRDBN-585">
          <mxGeometry relative="1" as="geometry" />
        </mxCell>
        <mxCell id="wpcL7Qo-BOGiDXtRRDBN-587" value="" style="group" vertex="1" connectable="0" parent="1">
          <mxGeometry x="5420.01" y="565.11" width="60" height="185" as="geometry" />
        </mxCell>
        <mxCell id="wpcL7Qo-BOGiDXtRRDBN-588" value="32" style="text;html=1;strokeColor=none;fillColor=none;align=center;verticalAlign=middle;whiteSpace=wrap;rounded=0;" vertex="1" parent="wpcL7Qo-BOGiDXtRRDBN-587">
          <mxGeometry width="60" height="30" as="geometry" />
        </mxCell>
        <mxCell id="wpcL7Qo-BOGiDXtRRDBN-589" value="" style="group" vertex="1" connectable="0" parent="1">
          <mxGeometry x="5370.01" y="565.11" width="60" height="185" as="geometry" />
        </mxCell>
        <mxCell id="wpcL7Qo-BOGiDXtRRDBN-590" value="64" style="text;html=1;strokeColor=none;fillColor=none;align=center;verticalAlign=middle;whiteSpace=wrap;rounded=0;" vertex="1" parent="wpcL7Qo-BOGiDXtRRDBN-589">
          <mxGeometry width="60" height="30" as="geometry" />
        </mxCell>
        <mxCell id="wpcL7Qo-BOGiDXtRRDBN-592" style="edgeStyle=orthogonalEdgeStyle;rounded=0;orthogonalLoop=1;jettySize=auto;html=1;exitX=1;exitY=0.5;exitDx=0;exitDy=0;entryX=0;entryY=0.5;entryDx=0;entryDy=0;strokeWidth=2;fillColor=#f5f5f5;gradientColor=#b3b3b3;strokeColor=#7A3E00;" edge="1" parent="1" target="wpcL7Qo-BOGiDXtRRDBN-591" source="wpcL7Qo-BOGiDXtRRDBN-576">
          <mxGeometry relative="1" as="geometry">
            <mxPoint x="5280.01" y="787.84" as="sourcePoint" />
          </mxGeometry>
        </mxCell>
        <mxCell id="wpcL7Qo-BOGiDXtRRDBN-593" value="" style="group" vertex="1" connectable="0" parent="1">
          <mxGeometry x="5280.01" y="683.17" width="60" height="186.82999999999998" as="geometry" />
        </mxCell>
        <mxCell id="wpcL7Qo-BOGiDXtRRDBN-594" value="32" style="text;html=1;strokeColor=none;fillColor=none;align=center;verticalAlign=middle;whiteSpace=wrap;rounded=0;" vertex="1" parent="wpcL7Qo-BOGiDXtRRDBN-593">
          <mxGeometry width="60" height="30" as="geometry" />
        </mxCell>
        <mxCell id="wpcL7Qo-BOGiDXtRRDBN-591" value="" style="rounded=0;whiteSpace=wrap;html=1;fillColor=#1ba1e2;strokeColor=#006EAF;fontColor=#ffffff;" vertex="1" parent="wpcL7Qo-BOGiDXtRRDBN-593">
          <mxGeometry x="20" y="26.829999999999984" width="20" height="160" as="geometry" />
        </mxCell>
        <mxCell id="wpcL7Qo-BOGiDXtRRDBN-596" style="edgeStyle=orthogonalEdgeStyle;rounded=0;orthogonalLoop=1;jettySize=auto;html=1;entryX=0;entryY=0.5;entryDx=0;entryDy=0;strokeWidth=2;" edge="1" parent="1" source="wpcL7Qo-BOGiDXtRRDBN-591" target="wpcL7Qo-BOGiDXtRRDBN-583">
          <mxGeometry relative="1" as="geometry" />
        </mxCell>
        <mxCell id="wpcL7Qo-BOGiDXtRRDBN-605" style="edgeStyle=orthogonalEdgeStyle;rounded=0;orthogonalLoop=1;jettySize=auto;html=1;entryX=0.5;entryY=1;entryDx=0;entryDy=0;strokeWidth=2;fillColor=#b0e3e6;strokeColor=#0e8088;" edge="1" parent="1" source="wpcL7Qo-BOGiDXtRRDBN-598" target="wpcL7Qo-BOGiDXtRRDBN-17">
          <mxGeometry relative="1" as="geometry">
            <mxPoint x="5538.010000000001" y="669.9999999999998" as="targetPoint" />
          </mxGeometry>
        </mxCell>
        <mxCell id="wpcL7Qo-BOGiDXtRRDBN-598" value="" style="rounded=0;whiteSpace=wrap;html=1;fillColor=#1ba1e2;strokeColor=#006EAF;fontColor=#ffffff;" vertex="1" parent="1">
          <mxGeometry x="5480.01" y="590.11" width="20" height="160" as="geometry" />
        </mxCell>
        <mxCell id="wpcL7Qo-BOGiDXtRRDBN-599" style="edgeStyle=orthogonalEdgeStyle;rounded=0;orthogonalLoop=1;jettySize=auto;html=1;entryX=0;entryY=0.5;entryDx=0;entryDy=0;strokeWidth=2;fillColor=#e6d0de;gradientColor=#d5739d;strokeColor=#996185;" edge="1" parent="1" target="wpcL7Qo-BOGiDXtRRDBN-598">
          <mxGeometry relative="1" as="geometry">
            <mxPoint x="5460.01" y="670.11" as="sourcePoint" />
          </mxGeometry>
        </mxCell>
        <mxCell id="wpcL7Qo-BOGiDXtRRDBN-600" value="32" style="text;html=1;strokeColor=none;fillColor=none;align=center;verticalAlign=middle;whiteSpace=wrap;rounded=0;" vertex="1" parent="1">
          <mxGeometry x="5460.01" y="565.11" width="60" height="30" as="geometry" />
        </mxCell>
        <mxCell id="wpcL7Qo-BOGiDXtRRDBN-358" value="" style="rounded=0;whiteSpace=wrap;html=1;fillColor=#1ba1e2;strokeColor=#006EAF;fontColor=#ffffff;" vertex="1" parent="1">
          <mxGeometry x="1540.01" y="1194.64" width="160" height="10" as="geometry" />
        </mxCell>
        <mxCell id="wpcL7Qo-BOGiDXtRRDBN-359" value="256" style="text;html=1;strokeColor=none;fillColor=none;align=center;verticalAlign=middle;whiteSpace=wrap;rounded=0;" vertex="1" parent="1">
          <mxGeometry x="1575.01" y="1184.8600000000001" width="60" height="4.77608108108108" as="geometry" />
        </mxCell>
        <mxCell id="wpcL7Qo-BOGiDXtRRDBN-362" value="" style="group" vertex="1" connectable="0" parent="1">
          <mxGeometry x="1625.01" y="1159.53" width="320" height="30" as="geometry" />
        </mxCell>
        <mxCell id="wpcL7Qo-BOGiDXtRRDBN-363" value="" style="group" vertex="1" connectable="0" parent="wpcL7Qo-BOGiDXtRRDBN-362">
          <mxGeometry width="320" height="30" as="geometry" />
        </mxCell>
        <mxCell id="wpcL7Qo-BOGiDXtRRDBN-365" value="512" style="text;html=1;strokeColor=none;fillColor=none;align=center;verticalAlign=middle;whiteSpace=wrap;rounded=0;" vertex="1" parent="wpcL7Qo-BOGiDXtRRDBN-363">
          <mxGeometry x="100" y="5.219999999999999" width="120" height="4.77608108108108" as="geometry" />
        </mxCell>
        <mxCell id="wpcL7Qo-BOGiDXtRRDBN-368" value="" style="group" vertex="1" connectable="0" parent="1">
          <mxGeometry x="1820.01" y="1129.6799999999998" width="320" height="29.78" as="geometry" />
        </mxCell>
        <mxCell id="wpcL7Qo-BOGiDXtRRDBN-369" value="" style="group" vertex="1" connectable="0" parent="wpcL7Qo-BOGiDXtRRDBN-368">
          <mxGeometry width="320" height="29.78" as="geometry" />
        </mxCell>
        <mxCell id="wpcL7Qo-BOGiDXtRRDBN-370" value="" style="rounded=0;whiteSpace=wrap;html=1;fillColor=#1ba1e2;strokeColor=#006EAF;fontColor=#ffffff;" vertex="1" parent="wpcL7Qo-BOGiDXtRRDBN-369">
          <mxGeometry y="14.89" width="320" height="9.926666666666668" as="geometry" />
        </mxCell>
        <mxCell id="wpcL7Qo-BOGiDXtRRDBN-371" value="512" style="text;html=1;strokeColor=none;fillColor=none;align=center;verticalAlign=middle;whiteSpace=wrap;rounded=0;" vertex="1" parent="wpcL7Qo-BOGiDXtRRDBN-369">
          <mxGeometry x="80" y="5.181719999999999" width="120" height="4.741056486486485" as="geometry" />
        </mxCell>
        <mxCell id="wpcL7Qo-BOGiDXtRRDBN-366" style="edgeStyle=orthogonalEdgeStyle;rounded=0;orthogonalLoop=1;jettySize=auto;html=1;exitX=0.5;exitY=0;exitDx=0;exitDy=0;entryX=0;entryY=0.5;entryDx=0;entryDy=0;strokeWidth=2;fillColor=#e6d0de;gradientColor=#d5739d;strokeColor=#996185;" edge="1" parent="1" source="wpcL7Qo-BOGiDXtRRDBN-358" target="wpcL7Qo-BOGiDXtRRDBN-364">
          <mxGeometry relative="1" as="geometry">
            <Array as="points">
              <mxPoint x="1620.01" y="1179.75" />
            </Array>
          </mxGeometry>
        </mxCell>
        <mxCell id="wpcL7Qo-BOGiDXtRRDBN-364" value="" style="rounded=0;whiteSpace=wrap;html=1;fillColor=#1ba1e2;strokeColor=#006EAF;fontColor=#ffffff;" vertex="1" parent="1">
          <mxGeometry x="1640.01" y="1174.8600000000001" width="320" height="10" as="geometry" />
        </mxCell>
        <mxCell id="wpcL7Qo-BOGiDXtRRDBN-372" style="edgeStyle=orthogonalEdgeStyle;rounded=0;orthogonalLoop=1;jettySize=auto;html=1;entryX=0;entryY=0.5;entryDx=0;entryDy=0;strokeWidth=2;fillColor=#e6d0de;gradientColor=#d5739d;strokeColor=#996185;" edge="1" parent="1" target="wpcL7Qo-BOGiDXtRRDBN-370">
          <mxGeometry relative="1" as="geometry">
            <mxPoint x="1800.01" y="1175.0800000000002" as="sourcePoint" />
            <Array as="points">
              <mxPoint x="1800.01" y="1150.08" />
            </Array>
          </mxGeometry>
        </mxCell>
        <mxCell id="wpcL7Qo-BOGiDXtRRDBN-373" value="" style="group" vertex="1" connectable="0" parent="1">
          <mxGeometry x="2000.01" y="1097.4" width="320" height="34.78" as="geometry" />
        </mxCell>
        <mxCell id="wpcL7Qo-BOGiDXtRRDBN-374" value="" style="group" vertex="1" connectable="0" parent="wpcL7Qo-BOGiDXtRRDBN-373">
          <mxGeometry y="4.78" width="320" height="30" as="geometry" />
        </mxCell>
        <mxCell id="wpcL7Qo-BOGiDXtRRDBN-375" value="" style="group" vertex="1" connectable="0" parent="wpcL7Qo-BOGiDXtRRDBN-374">
          <mxGeometry width="320" height="30" as="geometry" />
        </mxCell>
        <mxCell id="wpcL7Qo-BOGiDXtRRDBN-376" value="" style="rounded=0;whiteSpace=wrap;html=1;fillColor=#1ba1e2;strokeColor=#006EAF;fontColor=#ffffff;" vertex="1" parent="wpcL7Qo-BOGiDXtRRDBN-375">
          <mxGeometry y="15" width="320" height="10" as="geometry" />
        </mxCell>
        <mxCell id="wpcL7Qo-BOGiDXtRRDBN-377" value="512" style="text;html=1;strokeColor=none;fillColor=none;align=center;verticalAlign=middle;whiteSpace=wrap;rounded=0;" vertex="1" parent="wpcL7Qo-BOGiDXtRRDBN-375">
          <mxGeometry x="100" y="5.219999999999999" width="120" height="4.77608108108108" as="geometry" />
        </mxCell>
        <mxCell id="wpcL7Qo-BOGiDXtRRDBN-378" style="edgeStyle=orthogonalEdgeStyle;rounded=0;orthogonalLoop=1;jettySize=auto;html=1;exitX=0.5;exitY=0;exitDx=0;exitDy=0;entryX=0;entryY=0.5;entryDx=0;entryDy=0;strokeWidth=2;fillColor=#e6d0de;gradientColor=#d5739d;strokeColor=#996185;" edge="1" parent="1" source="wpcL7Qo-BOGiDXtRRDBN-370" target="wpcL7Qo-BOGiDXtRRDBN-376">
          <mxGeometry relative="1" as="geometry">
            <mxPoint x="2400.01" y="1200.19" as="sourcePoint" />
            <Array as="points">
              <mxPoint x="1980.01" y="1122.08" />
            </Array>
          </mxGeometry>
        </mxCell>
        <mxCell id="wpcL7Qo-BOGiDXtRRDBN-606" style="edgeStyle=orthogonalEdgeStyle;rounded=0;orthogonalLoop=1;jettySize=auto;html=1;entryX=0;entryY=0.5;entryDx=0;entryDy=0;strokeWidth=2;fillColor=#b0e3e6;strokeColor=#0E8088;" edge="1" parent="1">
          <mxGeometry relative="1" as="geometry">
            <mxPoint x="45.00999999999999" y="89.77999999999997" as="sourcePoint" />
            <mxPoint x="83.00999999999999" y="89.77999999999997" as="targetPoint" />
          </mxGeometry>
        </mxCell>
        <mxCell id="wpcL7Qo-BOGiDXtRRDBN-607" value="1x1 conv, Tanh" style="text;html=1;strokeColor=none;fillColor=none;align=center;verticalAlign=middle;whiteSpace=wrap;rounded=0;fontColor=#0E8088;" vertex="1" parent="1">
          <mxGeometry x="100.00999999999999" y="74.88999999999999" width="88.75" height="30" as="geometry" />
        </mxCell>
        <mxCell id="wpcL7Qo-BOGiDXtRRDBN-608" value="" style="group" vertex="1" connectable="0" parent="1">
          <mxGeometry x="5625.01" y="435" width="30" height="185" as="geometry" />
        </mxCell>
        <mxCell id="wpcL7Qo-BOGiDXtRRDBN-609" value="" style="rounded=0;whiteSpace=wrap;html=1;fillColor=#1ba1e2;strokeColor=#006EAF;fontColor=#ffffff;" vertex="1" parent="wpcL7Qo-BOGiDXtRRDBN-608">
          <mxGeometry x="13" y="25" width="5" height="160" as="geometry" />
        </mxCell>
        <mxCell id="wpcL7Qo-BOGiDXtRRDBN-610" value="3" style="text;html=1;align=center;verticalAlign=middle;resizable=0;points=[];autosize=1;strokeColor=none;fillColor=none;" vertex="1" parent="wpcL7Qo-BOGiDXtRRDBN-608">
          <mxGeometry width="30" height="30" as="geometry" />
        </mxCell>
        <mxCell id="wpcL7Qo-BOGiDXtRRDBN-19" style="edgeStyle=orthogonalEdgeStyle;rounded=0;orthogonalLoop=1;jettySize=auto;html=1;fillColor=#ffe6cc;strokeColor=#d79b00;strokeWidth=2;exitX=1;exitY=0.5;exitDx=0;exitDy=0;jumpStyle=arc;jumpSize=18;entryX=0;entryY=0.5;entryDx=0;entryDy=0;" edge="1" parent="1" source="wpcL7Qo-BOGiDXtRRDBN-9" target="wpcL7Qo-BOGiDXtRRDBN-17">
          <mxGeometry relative="1" as="geometry">
            <mxPoint x="15.009999999999991" y="575" as="sourcePoint" />
            <mxPoint x="5465.01" y="500" as="targetPoint" />
            <Array as="points">
              <mxPoint x="5460.01" y="540" />
              <mxPoint x="5460.01" y="540" />
            </Array>
          </mxGeometry>
        </mxCell>
        <mxCell id="wpcL7Qo-BOGiDXtRRDBN-613" value="&lt;div align=&quot;left&quot;&gt;Output&lt;/div&gt;&lt;div align=&quot;left&quot;&gt;image&lt;br&gt;&lt;/div&gt;" style="text;html=1;strokeColor=none;fillColor=none;align=left;verticalAlign=middle;whiteSpace=wrap;rounded=0;fontStyle=1" vertex="1" parent="1">
          <mxGeometry x="5650.01" y="460" width="60" height="30" as="geometry" />
        </mxCell>
        <mxCell id="wpcL7Qo-BOGiDXtRRDBN-30" value="32" style="text;html=1;strokeColor=none;fillColor=none;align=center;verticalAlign=middle;whiteSpace=wrap;rounded=0;" vertex="1" parent="1">
          <mxGeometry x="220.01" y="229.67000000000002" width="60" height="30" as="geometry" />
        </mxCell>
      </root>
    </mxGraphModel>
  </diagram>
</mxfile>
